<svg width="927" height="642" viewBox="0 0 927 642" fill="none" xmlns="http://www.w3.org/2000/svg">
<g clip-path="url(#clip0_8_549)">
<path opacity="0.4" d="M925.542 400.53C925.542 400.53 943.506 401.237 963.59 401.162C983.674 401.088 994.163 412.32 992.712 428.127C989.662 461.526 1042.25 466.101 1030.2 487.487C1018.15 508.873 976.645 509.468 959.238 512.443C941.832 515.419 943.097 521.704 991.373 547.851C1046.27 577.605 811.694 585.936 856.847 607.806C893.593 625.621 964.334 658.202 609.663 658.202C254.992 658.202 703.575 472.238 703.575 472.238L925.542 400.53Z" fill="#DA924E"/>
<g opacity="0.15">
<path opacity="0.15" d="M678.284 627.144H682.152V625.21L679.586 623.313L678.284 627.144Z" fill="#231F20"/>
<path opacity="0.15" d="M669.285 615.391L665.268 613.606V616.656L666.793 618.701L669.285 615.391Z" fill="#231F20"/>
<path opacity="0.15" d="M648.905 636.593L651.211 639.159L655.042 637.857L656.344 635.328L651.211 634.027L648.905 636.593Z" fill="#231F20"/>
<path opacity="0.15" d="M698.519 622.644L694.204 623.76L695.171 627.851L701.16 626.475L698.519 622.644Z" fill="#231F20"/>
<path opacity="0.15" d="M669.955 635.588L669.026 637.261L670.29 640.2L673.303 637.484L669.955 635.588Z" fill="#231F20"/>
<path opacity="0.15" d="M698.815 639.493L696.435 641.13L700.266 644.738L703.539 643.622L702.795 640.274L698.815 639.493Z" fill="#231F20"/>
<path opacity="0.15" d="M715.366 579.427L711.423 577.009L707.89 579.761L710.456 583.109L715.366 579.427Z" fill="#231F20"/>
<path opacity="0.15" d="M678.658 618.071L679.885 615.876L677.505 613.868L675.906 616.434L674.046 615.728L674.158 618.034L675.385 619.558L676.501 617.885L678.658 618.071Z" fill="#231F20"/>
<path opacity="0.15" d="M704.731 610.669L704.693 610.446L703.317 609.07L701.83 611.822L703.28 612.231L702.276 613.347L706.107 615.504L706.404 612.454L705.065 610.297L704.731 610.669Z" fill="#231F20"/>
<path opacity="0.15" d="M751.484 616.396L756.877 619.334L757.435 614.722L753.455 612.677L751.484 616.396Z" fill="#231F20"/>
<path opacity="0.15" d="M706.479 601.928L709.009 602.151L709.864 599.139L705.326 598.543L706.479 601.928Z" fill="#231F20"/>
<path opacity="0.15" d="M720.165 625.844L723.066 624.84L724.517 622.72L720.575 621.492L720.165 625.844Z" fill="#231F20"/>
<path opacity="0.15" d="M743.635 627.181L744.119 632.426L747.28 633.765L748.917 630.752L746.462 627.553L743.635 627.181Z" fill="#231F20"/>
<path opacity="0.15" d="M710.011 603.788L714.177 605.834L717.412 602.747L714.549 599.66L710.011 603.788Z" fill="#231F20"/>
<path opacity="0.15" d="M728.906 580.505H732.737V578.608L730.171 576.674L728.906 580.505Z" fill="#231F20"/>
<path opacity="0.15" d="M741.923 564.176L744.489 565.961L746.535 561.87H742.964L741.923 564.176Z" fill="#231F20"/>
<path opacity="0.15" d="M719.869 568.752L715.89 566.967V570.054L717.415 572.1L719.869 568.752Z" fill="#231F20"/>
<path opacity="0.15" d="M701.83 592.518L705.661 591.254L706.925 588.687L702.759 587.646L705.475 584.373L702.09 583.294L700.007 585.935L701.83 587.423L699.524 589.989L701.83 592.518Z" fill="#231F20"/>
<path opacity="0.15" d="M744.785 577.121L745.789 581.212L751.777 579.836L749.136 576.005L744.785 577.121Z" fill="#231F20"/>
<path opacity="0.15" d="M723.883 590.843L720.536 588.983L719.606 590.657L720.164 591.922L718.527 592.294L717.039 594.711L721.986 596.459L724.515 594.153L722.804 591.847L723.883 590.843Z" fill="#231F20"/>
<path opacity="0.15" d="M702.497 600.218L704.505 598.731L703.166 595.904L699.373 598.47L702.497 600.218Z" fill="#231F20"/>
<path opacity="0.15" d="M729.797 603.826L726.003 605.537L726.264 605.872L725.631 606.095L724.664 609.145L728.718 609.107L728.644 608.959L730.132 606.355L729.797 603.826Z" fill="#231F20"/>
<path opacity="0.15" d="M753.379 593.671L749.437 592.89L747.057 594.489L750.888 598.097L754.123 597.018L753.379 593.671Z" fill="#231F20"/>
<path opacity="0.15" d="M758.512 533.159L761.078 536.506L765.987 532.824L762.008 530.369L758.512 533.159Z" fill="#231F20"/>
<path opacity="0.15" d="M745.013 554.21L741.182 553.838L740.996 555.735L743.376 557.892L745.013 554.21Z" fill="#231F20"/>
<path opacity="0.15" d="M730.505 569.272L728.125 567.264L725.708 571.132L729.278 571.466L730.505 569.272Z" fill="#231F20"/>
<path opacity="0.15" d="M756.728 568.9L756.989 565.85L755.65 563.656L752.897 566.743L756.728 568.9Z" fill="#231F20"/>
<path opacity="0.15" d="M775.139 547.514L773.094 544.762L769.151 545.692L767.626 548.11L772.61 549.858L775.139 547.514Z" fill="#231F20"/>
<path opacity="0.15" d="M802.102 569.795L807.495 572.733L808.053 568.121L804.073 566.075L802.102 569.795Z" fill="#231F20"/>
<path opacity="0.15" d="M757.097 555.325L759.589 555.511L760.444 552.535L755.907 551.94L757.097 555.325Z" fill="#231F20"/>
<path opacity="0.15" d="M770.784 579.24L773.685 578.236L775.098 576.116L771.156 574.851L770.784 579.24Z" fill="#231F20"/>
<path opacity="0.15" d="M794.257 580.58L794.703 585.825L797.864 587.163L799.538 584.151L797.083 580.915L794.257 580.58Z" fill="#231F20"/>
<path opacity="0.15" d="M792.73 534.46L789.271 537.585L792.469 539.147L794.924 536.804L792.73 534.46Z" fill="#231F20"/>
<path opacity="0.15" d="M806.602 518.432L804.668 516.944L803.701 519.882H806.602V518.432Z" fill="#231F20"/>
<path opacity="0.15" d="M815.566 508.798L817.128 505.673H814.376L813.595 507.421L815.566 508.798Z" fill="#231F20"/>
<path opacity="0.15" d="M796.82 510.918L793.77 509.579V511.885L794.923 513.447L796.82 510.918Z" fill="#231F20"/>
<path opacity="0.15" d="M781.312 527.06L783.06 529.031L785.961 528.064L786.965 526.093L783.06 525.125L781.312 527.06Z" fill="#231F20"/>
<path opacity="0.15" d="M821.108 519.361L819.099 516.459L815.789 517.278L816.124 518.691L815.083 517.65L811.772 520.96L815.045 522.373L816.979 520.29L821.108 519.361Z" fill="#231F20"/>
<path opacity="0.15" d="M796.597 527.579L797.602 529.81L799.87 527.727L797.304 526.314L796.597 527.579Z" fill="#231F20"/>
<path opacity="0.15" d="M803.442 541.599L804.595 539.554L804.334 537.62L801.471 538.921L803.442 541.599Z" fill="#231F20"/>
<path opacity="0.15" d="M819.322 529.289L817.5 530.516L820.401 533.268L822.893 532.45L822.335 529.884L819.322 529.289Z" fill="#231F20"/>
<path opacity="0.15" d="M826.241 483.803L828.175 486.332L831.931 483.543L828.881 481.683L826.241 483.803Z" fill="#231F20"/>
<path opacity="0.15" d="M815.938 499.835L813.037 499.575L812.888 501.025L814.71 502.662L815.938 499.835Z" fill="#231F20"/>
<path opacity="0.15" d="M821.961 509.392L824.862 511.029L825.085 508.686L824.044 507.049L821.961 509.392Z" fill="#231F20"/>
<path opacity="0.15" d="M834.312 493.326L833.159 495.186L836.953 496.525L838.887 494.739L837.325 492.656L834.312 493.326Z" fill="#231F20"/>
<path opacity="0.15" d="M859.416 511.699L863.507 513.931L863.953 510.435L860.941 508.873L859.416 511.699Z" fill="#231F20"/>
<path opacity="0.15" d="M839.74 503.852L838.996 506.158L842.083 506.12L841.116 503.368L839.74 503.852Z" fill="#231F20"/>
<path opacity="0.15" d="M835.575 518.876L837.769 518.132L838.885 516.495L835.873 515.565L835.575 518.876Z" fill="#231F20"/>
<path opacity="0.15" d="M853.427 519.918L853.799 523.898L856.216 524.902L857.481 522.634L855.584 520.179L853.427 519.918Z" fill="#231F20"/>
<path opacity="0.15" d="M888.276 434.67L890.768 436.679L893.744 433.108L890.359 431.992L888.276 434.67Z" fill="#231F20"/>
<path opacity="0.15" d="M879.314 454.533L881.471 455.686L881.991 452.674L879.128 453.083L879.314 454.533Z" fill="#231F20"/>
<path opacity="0.15" d="M873.959 466.397L871.839 465.355L870.723 468.628L873.438 468.257L873.959 466.397Z" fill="#231F20"/>
<path opacity="0.15" d="M891.587 457.769L890.099 460.558L893.297 461.451L892.963 459.145L891.587 457.769Z" fill="#231F20"/>
<path opacity="0.15" d="M901.108 440.698L898.356 442.075L897.686 444.12L901.666 444.529L903.117 442.372L901.108 440.698Z" fill="#231F20"/>
<path opacity="0.15" d="M864.845 455.648L867.262 458.252L870.386 456.95L869.196 453.974L864.845 455.648Z" fill="#231F20"/>
<path opacity="0.15" d="M884.669 444.342L887.385 445.384L887.905 444.045L886.641 441.962L884.669 444.342Z" fill="#231F20"/>
<path opacity="0.15" d="M902.336 435.936L899.77 434.969L898.431 436.308L899.733 438.28L902.336 435.936Z" fill="#231F20"/>
<path opacity="0.15" d="M879.129 431.138L878.311 433.333L878.832 435.192L881.472 433.519L879.129 431.138Z" fill="#231F20"/>
<path opacity="0.15" d="M865.22 445.568L866.82 444.118L863.547 441.775L861.204 442.965L862.133 445.42L865.22 445.568Z" fill="#231F20"/>
<path opacity="0.15" d="M859.23 492.655L862.466 494.068L864.809 491.577L862.503 489.345L859.23 492.655Z" fill="#231F20"/>
<path opacity="0.15" d="M873.549 471.306L872.731 474.245L875.632 474.096L875.557 472.645L873.549 471.306Z" fill="#231F20"/>
<path opacity="0.15" d="M882.031 461.341L884.039 462.605L885.452 459.407L882.7 459.556L882.031 461.341Z" fill="#231F20"/>
<path opacity="0.15" d="M862.43 466.77L863.658 468.294L865.406 465.654L862.319 464.464L862.43 466.77Z" fill="#231F20"/>
<path opacity="0.15" d="M856.329 481.31L852.387 480.529L850.75 482.537L852.573 484.397L855.437 483.281L856.329 481.31Z" fill="#231F20"/>
<path opacity="0.15" d="M826.909 471.715L827.988 468.702L823.636 467.066L823.711 470.599L826.909 471.715Z" fill="#231F20"/>
<path opacity="0.15" d="M847.292 474.319L848.594 473.649L849.003 471.269L845.953 471.752L847.292 474.319Z" fill="#231F20"/>
<path opacity="0.15" d="M864.735 477.145L863.507 474.728L861.573 474.839L861.276 477.182L864.735 477.145Z" fill="#231F20"/>
<path opacity="0.15" d="M850.563 458.177L848.48 459.256L847.662 461.004L850.749 461.525L850.563 458.177Z" fill="#231F20"/>
<path opacity="0.15" d="M831.598 459.74L830.854 461.637L831.374 463.497L834.052 461.823L831.97 459.74L832.751 459.703L831.821 455.798L829.292 455.166L828.362 457.583L830.593 459.74H831.598Z" fill="#231F20"/>
<path opacity="0.15" d="M846.286 461.414L842.939 460.335L840.819 463.013L843.311 465.022L846.286 461.414Z" fill="#231F20"/>
<path opacity="0.15" d="M831.893 482.836L834.013 484.026L834.571 480.977L831.67 481.386L831.893 482.836Z" fill="#231F20"/>
<path opacity="0.15" d="M826.502 494.739L824.382 493.66L823.303 496.971L825.981 496.561L826.502 494.739Z" fill="#231F20"/>
<path opacity="0.15" d="M844.132 486.109L842.644 488.861L845.843 489.791L845.508 487.485L844.132 486.109Z" fill="#231F20"/>
<path opacity="0.15" d="M855.696 470.675L853.687 469.001L850.935 470.377L850.229 472.46L854.245 472.869L855.696 470.675Z" fill="#231F20"/>
<path opacity="0.15" d="M819.808 486.557L822.969 485.256L821.779 482.28L817.39 483.954L819.808 486.557Z" fill="#231F20"/>
<path opacity="0.15" d="M840.485 472.348L839.183 470.302L837.212 472.646L839.964 473.724L840.485 472.348Z" fill="#231F20"/>
<path opacity="0.15" d="M854.878 464.276L852.349 463.272L850.973 464.611L852.312 466.582L854.878 464.276Z" fill="#231F20"/>
<path opacity="0.15" d="M817.759 473.874L819.358 472.423L816.085 470.117L813.742 471.27L814.672 473.725L817.759 473.874Z" fill="#231F20"/>
<path opacity="0.15" d="M827.206 500.354L827.689 498.569L824.267 498.086L825.16 500.689L825.792 500.726L825.272 502.586L828.21 502.437L828.135 500.987L827.206 500.354Z" fill="#231F20"/>
<path opacity="0.15" d="M837.994 487.709L835.279 487.858L834.573 489.644L836.581 490.908L837.994 487.709Z" fill="#231F20"/>
<path opacity="0.15" d="M814.858 492.766L814.969 495.11L816.234 496.597L817.982 493.957L814.858 492.766Z" fill="#231F20"/>
<path opacity="0.15" d="M803.74 510.323L803.07 509.765L801.248 512.74L803.963 512.963L804.483 512.071L805.153 512.74L808.017 511.624L808.872 509.616L804.93 508.835L803.74 510.323Z" fill="#231F20"/>
<path opacity="0.15" d="M779.451 500.021L780.567 497.008L776.178 495.372L776.253 498.905L779.451 500.021Z" fill="#231F20"/>
<path opacity="0.15" d="M798.529 500.058L799.868 502.662L801.17 501.992L801.542 499.575L798.529 500.058Z" fill="#231F20"/>
<path opacity="0.15" d="M816.049 503.033L814.152 503.145L813.818 505.525L817.314 505.451L816.049 503.033Z" fill="#231F20"/>
<path opacity="0.15" d="M803.143 486.518L801.06 487.559L800.204 489.307L803.329 489.828L803.143 486.518Z" fill="#231F20"/>
<path opacity="0.15" d="M785.331 488.043L784.401 484.138L781.872 483.469L780.942 485.923L783.136 488.043H785.331Z" fill="#231F20"/>
<path opacity="0.15" d="M693.719 603.936L692.975 604.047L694.389 600.812L690.558 600.477L690.409 602.374L692.343 604.122L690.818 604.345L691.041 605.795L693.161 606.986L693.719 603.936Z" fill="#231F20"/>
<path opacity="0.15" d="M685.686 617.698L683.566 616.62L682.45 619.93L685.165 619.521L685.686 617.698Z" fill="#231F20"/>
<path opacity="0.15" d="M709.417 595.382L713.397 595.792L714.847 593.634L712.839 591.961L710.087 593.337L709.417 595.382Z" fill="#231F20"/>
<path opacity="0.15" d="M678.956 609.517L682.117 608.215L680.927 605.24L676.575 606.913L678.956 609.517Z" fill="#231F20"/>
<path opacity="0.15" d="M699.636 595.309L698.372 593.227L696.401 595.607L699.116 596.686L699.636 595.309Z" fill="#231F20"/>
<path opacity="0.15" d="M711.501 586.232L710.162 587.571L711.464 589.542L714.03 587.199L711.501 586.232Z" fill="#231F20"/>
<path opacity="0.15" d="M693.202 584.783L690.859 582.403L690.004 584.597L690.562 586.457L693.202 584.783Z" fill="#231F20"/>
<path opacity="0.15" d="M676.911 596.833L678.547 595.383L675.274 593.077L672.931 594.23L673.861 596.684L676.911 596.833Z" fill="#231F20"/>
<path opacity="0.15" d="M674.234 640.607L670.961 643.917L674.197 645.331L676.54 642.839L674.234 640.607Z" fill="#231F20"/>
<path opacity="0.15" d="M685.28 622.569L684.462 625.507L687.363 625.395L687.289 623.907L685.28 622.569Z" fill="#231F20"/>
<path opacity="0.15" d="M695.765 613.866L697.141 610.668L694.798 610.779L695.951 608.473H692.343L691.339 610.779L693.794 612.49L693.756 612.602L695.765 613.866Z" fill="#231F20"/>
<path opacity="0.15" d="M662.444 633.84L664.303 635.7L667.167 634.584L668.06 632.575L664.117 631.794L662.444 633.84Z" fill="#231F20"/>
<path opacity="0.15" d="M635.404 621.864L638.64 622.98L639.718 619.968L635.329 618.331L635.404 621.864Z" fill="#231F20"/>
<path opacity="0.15" d="M660.73 622.534L657.68 623.018L659.019 625.584L660.321 624.915L660.73 622.534Z" fill="#231F20"/>
<path opacity="0.15" d="M673.304 626.102L672.969 628.482L676.465 628.408L675.201 625.99L673.304 626.102Z" fill="#231F20"/>
<path opacity="0.15" d="M662.294 609.44L660.211 610.519L659.393 612.267L662.48 612.788L662.294 609.44Z" fill="#231F20"/>
<path opacity="0.15" d="M641.019 606.428L640.089 608.883L642.283 611.003H644.478L643.548 607.097L641.019 606.428Z" fill="#231F20"/>
<path opacity="0.15" d="M752.264 569.682L750.07 567.339L746.611 570.501L749.772 572.063L752.264 569.682Z" fill="#231F20"/>
<path opacity="0.15" d="M761.003 552.795H763.942V551.307L761.97 549.857L761.003 552.795Z" fill="#231F20"/>
<path opacity="0.15" d="M770.935 540.337L772.869 541.676L774.431 538.589H771.716L770.935 540.337Z" fill="#231F20"/>
<path opacity="0.15" d="M754.125 543.833L751.075 542.457V544.8L752.266 546.362L754.125 543.833Z" fill="#231F20"/>
<path opacity="0.15" d="M743.297 560.942L744.264 559.008L740.359 558.041L738.611 559.975L740.359 561.947L743.297 560.942Z" fill="#231F20"/>
<path opacity="0.15" d="M773.871 553.317L778.408 552.276L776.4 549.337L773.09 550.193L773.871 553.317Z" fill="#231F20"/>
<path opacity="0.15" d="M754.905 562.726L757.173 560.643L754.644 559.229L753.938 560.494L754.905 562.726Z" fill="#231F20"/>
<path opacity="0.15" d="M738.501 566.446L740.882 567.785L742.444 566.632L741.402 564.512L738.501 566.446Z" fill="#231F20"/>
<path opacity="0.15" d="M758.811 571.84L760.782 574.518L761.935 572.472L761.674 570.538L758.811 571.84Z" fill="#231F20"/>
<path opacity="0.15" d="M778.113 562.505L779.303 562.468L778.076 558.86L776.253 559.492L775.286 562.542L776.179 562.505L774.84 563.435L777.741 566.187L780.233 565.331L779.638 562.802L778.113 562.505Z" fill="#231F20"/>
<path opacity="0.15" d="M783.539 516.719L785.511 519.248L789.23 516.459L786.217 514.599L783.539 516.719Z" fill="#231F20"/>
<path opacity="0.15" d="M773.237 532.75L770.336 532.453L770.225 533.903L772.01 535.54L773.237 532.75Z" fill="#231F20"/>
<path opacity="0.15" d="M762.232 544.205L760.409 542.68L758.55 545.618L761.265 545.879L762.232 544.205Z" fill="#231F20"/>
<path opacity="0.15" d="M779.267 542.27L782.168 543.944L782.391 541.601L781.387 539.927L779.267 542.27Z" fill="#231F20"/>
<path opacity="0.15" d="M796.224 527.653L794.624 525.533L791.649 526.24L790.496 528.099L794.289 529.438L796.224 527.653Z" fill="#231F20"/>
<path opacity="0.15" d="M816.755 544.615L820.846 546.847L821.256 543.313L818.243 541.788L816.755 544.615Z" fill="#231F20"/>
<path opacity="0.15" d="M798.459 536.284L797.046 536.767L796.302 539.073L799.389 539.036L798.459 536.284Z" fill="#231F20"/>
<path opacity="0.15" d="M785.03 531.448L781.571 531.001L782.203 532.861L781.199 533.53L783.579 534.869L785.104 533.716L784.658 532.786L785.03 531.448Z" fill="#231F20"/>
<path opacity="0.15" d="M796.188 549.413L793.176 548.483L792.915 551.794L795.109 551.013L796.188 549.413Z" fill="#231F20"/>
<path opacity="0.15" d="M810.767 552.796L811.102 556.813L813.519 557.817L814.784 555.549L812.924 553.094L810.767 552.796Z" fill="#231F20"/>
</g>
<path opacity="0.4" d="M8.14709 635.923L914.388 400.492L925.509 400.53L180.61 667.053C180.61 667.053 59.6592 686.691 77.8465 656.156C95.7734 626.03 8.14709 635.923 8.14709 635.923Z" fill="#DA924E"/>
<g opacity="0.15">
<path opacity="0.15" d="M161.416 634.508L164.614 635.847L165.284 634.285L163.833 631.793L161.416 634.508Z" fill="#231F20"/>
<path opacity="0.15" d="M158.034 621.603L155.356 618.739L154.277 621.268L154.835 623.5L158.034 621.603Z" fill="#231F20"/>
<path opacity="0.15" d="M133.742 632.091L134.746 635.029L138.391 635.289L140.325 633.615L136.531 630.789L133.742 632.091Z" fill="#231F20"/>
<path opacity="0.15" d="M179.748 637.855L175.806 637.26L175.173 641.016L180.603 641.946L179.748 637.855Z" fill="#231F20"/>
<path opacity="0.15" d="M151.522 638.598L150.183 639.677L150.221 642.541L153.642 641.351L151.522 638.598Z" fill="#231F20"/>
<path opacity="0.15" d="M130.656 639.084L132.627 641.651L134.822 641.093L134.673 638.303L130.656 639.084Z" fill="#231F20"/>
<path opacity="0.15" d="M208.837 607.878L206.419 604.494L202.514 605.572L203.481 609.255L208.837 607.878Z" fill="#231F20"/>
<path opacity="0.15" d="M164.874 627.145L166.659 625.731L165.395 623.24L163.163 624.802L161.861 623.574L161.155 625.545L161.638 627.219L163.163 626.215L164.874 627.145Z" fill="#231F20"/>
<path opacity="0.15" d="M189.086 630.081L189.16 629.895L188.491 628.259L186.259 630.044L187.338 630.9L186.148 631.458L188.528 634.582L189.867 632.164L189.495 629.895L189.086 630.081Z" fill="#231F20"/>
<path opacity="0.15" d="M193.625 623.463L195.634 624.504L197.382 622.31L193.811 620.227L193.625 623.463Z" fill="#231F20"/>
<path opacity="0.15" d="M195.891 626.214L198.643 629.375L202.4 627.924L201.098 624.391L195.891 626.214Z" fill="#231F20"/>
<path opacity="0.15" d="M219.697 613.532L222.858 614.871L223.527 613.272L222.077 610.817L219.697 613.532Z" fill="#231F20"/>
<path opacity="0.15" d="M236.21 604.53L237.698 606.91L240.822 604.233L237.884 602.968L236.21 604.53Z" fill="#231F20"/>
<path opacity="0.15" d="M216.312 600.625L213.597 597.761L212.555 600.29L213.113 602.522L216.312 600.625Z" fill="#231F20"/>
<path opacity="0.15" d="M193.027 614.015L196.635 614.312L198.606 612.639L195.482 610.295L198.904 608.51L196.486 606.465L193.808 607.915L194.813 609.812L192.023 611.114L193.027 614.015Z" fill="#231F20"/>
<path opacity="0.15" d="M234.053 616.284L233.458 620.003L238.888 620.97L238.033 616.879L234.053 616.284Z" fill="#231F20"/>
<path opacity="0.15" d="M211.922 620.338L209.802 617.623L208.425 618.664L208.463 619.929L206.975 619.668L204.892 621.156L208.388 624.355L211.289 623.313L210.694 620.784L211.922 620.338Z" fill="#231F20"/>
<path opacity="0.15" d="M190.909 620.635L193.104 620.114L192.955 617.288L188.938 618.106L190.909 620.635Z" fill="#231F20"/>
<path opacity="0.15" d="M212.259 633.169L208.539 633.244L208.651 633.653L208.056 633.616L206.196 635.81L209.544 637.149V637.038L211.664 635.401L212.259 633.169Z" fill="#231F20"/>
<path opacity="0.15" d="M235.427 632.982L232.377 630.974L229.848 631.457L231.782 635.809L234.869 636.032L235.427 632.982Z" fill="#231F20"/>
<path opacity="0.15" d="M260.796 584.559L261.763 588.242L267.118 586.903L264.664 583.518L260.796 584.559Z" fill="#231F20"/>
<path opacity="0.15" d="M242.233 597.314L239.183 595.678L238.365 597.203L239.593 599.806L242.233 597.314Z" fill="#231F20"/>
<path opacity="0.15" d="M224.94 604.753L223.676 602.261L220.328 604.605L223.155 606.13L224.94 604.753Z" fill="#231F20"/>
<path opacity="0.15" d="M246.809 613.606L248.111 611.151L247.776 608.882L244.391 610.481L246.809 613.606Z" fill="#231F20"/>
<path opacity="0.15" d="M269.57 602.3L268.826 599.288L265.256 598.693L263.136 600.18L266.669 603.342L269.57 602.3Z" fill="#231F20"/>
<path opacity="0.15" d="M284.152 630.193L287.611 634.507L289.694 630.862L287.09 627.812L284.152 630.193Z" fill="#231F20"/>
<path opacity="0.15" d="M251.866 602.448L253.874 603.526L255.659 601.332L252.089 599.249L251.866 602.448Z" fill="#231F20"/>
<path opacity="0.15" d="M254.882 627.07L257.635 627.256L259.569 625.992L256.742 623.612L254.882 627.07Z" fill="#231F20"/>
<path opacity="0.15" d="M273.886 636.406L272.436 640.906L274.593 643.137L277.01 641.203L276.118 637.67L273.886 636.406Z" fill="#231F20"/>
<path opacity="0.15" d="M288.763 597.613L284.783 598.989L286.866 601.407L289.73 600.328L288.763 597.613Z" fill="#231F20"/>
<path opacity="0.15" d="M305.835 589.134L304.756 587.275L302.933 589.357L305.351 590.362L305.835 589.134Z" fill="#231F20"/>
<path opacity="0.15" d="M316.657 584.298L319 582.253L316.769 581.286L315.504 582.476L316.657 584.298Z" fill="#231F20"/>
<path opacity="0.15" d="M300.331 579.499L298.285 577.305L297.467 579.239L297.913 580.95L300.331 579.499Z" fill="#231F20"/>
<path opacity="0.15" d="M281.845 587.497L282.589 589.729L285.379 589.952L286.866 588.65L283.965 586.493L281.845 587.497Z" fill="#231F20"/>
<path opacity="0.15" d="M317.553 595.011L316.883 591.887L313.871 591.44L313.647 592.705L313.164 591.477L309.259 593.077L311.453 595.383L313.796 594.341L317.553 595.011Z" fill="#231F20"/>
<path opacity="0.15" d="M294.341 593.262L294.378 595.457L296.981 594.527L295.382 592.444L294.341 593.262Z" fill="#231F20"/>
<path opacity="0.15" d="M295.123 607.282L296.796 605.981L297.28 604.307L294.416 604.381L295.123 607.282Z" fill="#231F20"/>
<path opacity="0.15" d="M312.569 602.634L310.672 603.005L312.123 606.316L314.466 606.464L314.875 604.158L312.569 602.634Z" fill="#231F20"/>
<path opacity="0.15" d="M334.214 567.302L334.958 570.091L339.049 569.05L337.189 566.483L334.214 567.302Z" fill="#231F20"/>
<path opacity="0.15" d="M320.083 577.008L317.777 575.744L317.145 576.897L318.075 578.905L320.083 577.008Z" fill="#231F20"/>
<path opacity="0.15" d="M321.753 587.013L323.576 589.394L324.58 587.534L324.32 585.823L321.753 587.013Z" fill="#231F20"/>
<path opacity="0.15" d="M337.598 578.049L335.998 579.165L338.676 581.582L340.908 580.801L340.35 578.495L337.598 578.049Z" fill="#231F20"/>
<path opacity="0.15" d="M352.028 602.039L354.632 605.311L356.231 602.559L354.26 600.216L352.028 602.039Z" fill="#231F20"/>
<path opacity="0.15" d="M338.417 588.651L337.004 590.324L339.57 591.366L339.756 588.725L338.417 588.651Z" fill="#231F20"/>
<path opacity="0.15" d="M329.715 599.658L331.835 599.806L333.285 598.839L331.128 597.017L329.715 599.658Z" fill="#231F20"/>
<path opacity="0.15" d="M344.18 606.764L343.065 610.185L344.738 611.859L346.561 610.409L345.891 607.731L344.18 606.764Z" fill="#231F20"/>
<path opacity="0.15" d="M402.873 548.221L404.212 550.75L407.968 548.816L405.551 546.734L402.873 548.221Z" fill="#231F20"/>
<path opacity="0.15" d="M388.515 561.574L389.854 563.285L391.379 560.942L388.849 560.272L388.515 561.574Z" fill="#231F20"/>
<path opacity="0.15" d="M379.887 569.533L378.511 567.897L376.428 570.277L378.808 570.872L379.887 569.533Z" fill="#231F20"/>
<path opacity="0.15" d="M397.551 568.529L395.32 570.314L397.663 572.211L398.183 570.165L397.551 568.529Z" fill="#231F20"/>
<path opacity="0.15" d="M411.426 557.667L408.674 557.853L407.372 559.341L410.533 561.089L412.505 559.787L411.426 557.667Z" fill="#231F20"/>
<path opacity="0.15" d="M376.091 557.445L377.17 560.421L380.257 560.458L380.294 557.557L376.091 557.445Z" fill="#231F20"/>
<path opacity="0.15" d="M396.51 554.954L398.37 556.814L399.3 555.847L398.965 553.689L396.51 554.954Z" fill="#231F20"/>
<path opacity="0.15" d="M414.065 554.171L412.317 552.46L410.718 553.13L411.127 555.213L414.065 554.171Z" fill="#231F20"/>
<path opacity="0.15" d="M396.513 542.084L395.062 543.609L394.839 545.32L397.629 544.873L396.513 542.084Z" fill="#231F20"/>
<path opacity="0.15" d="M379.926 549.187L381.785 548.518L379.851 545.468L377.508 545.617L377.434 547.997L379.926 549.187Z" fill="#231F20"/>
<path opacity="0.15" d="M358.497 586.157L360.729 588.463L363.518 587.235L362.402 584.557L358.497 586.157Z" fill="#231F20"/>
<path opacity="0.15" d="M377.878 573.436L376.13 575.63L378.621 576.523L379.068 575.296L377.878 573.436Z" fill="#231F20"/>
<path opacity="0.15" d="M388.367 568.118L389.594 569.903L391.863 567.746L389.557 566.891L388.367 568.118Z" fill="#231F20"/>
<path opacity="0.15" d="M370.216 565.813L370.7 567.486L373.08 565.924L370.923 563.841L370.216 565.813Z" fill="#231F20"/>
<path opacity="0.15" d="M360.062 575.744L357.086 573.698L355.004 574.814L355.859 577.008L358.649 577.083L360.062 575.744Z" fill="#231F20"/>
<path opacity="0.15" d="M339.012 557.482L340.983 555.362L337.896 552.498L336.743 555.436L339.012 557.482Z" fill="#231F20"/>
<path opacity="0.15" d="M355.004 566.779L356.343 566.705L357.496 564.845L354.818 564.176L355.004 566.779Z" fill="#231F20"/>
<path opacity="0.15" d="M368.505 575.223L368.319 572.768L366.683 572.21L365.604 574.032L368.505 575.223Z" fill="#231F20"/>
<path opacity="0.15" d="M363.374 554.543L361.291 554.692L359.952 555.845L362.37 557.37L363.374 554.543Z" fill="#231F20"/>
<path opacity="0.15" d="M347.082 549.188L345.817 550.527L345.594 552.238L348.383 551.791L347.379 549.337L348.049 549.597L348.644 546.026L346.784 544.576L345.148 546.287L346.226 548.853L347.082 549.188Z" fill="#231F20"/>
<path opacity="0.15" d="M358.688 555.735L356.271 553.652L353.593 555.14L354.969 557.669L358.688 555.735Z" fill="#231F20"/>
<path opacity="0.15" d="M339.235 568.453L340.611 570.201L342.136 567.858L339.57 567.188L339.235 568.453Z" fill="#231F20"/>
<path opacity="0.15" d="M330.642 576.452L329.265 574.815L327.183 577.196L329.563 577.791L330.642 576.452Z" fill="#231F20"/>
<path opacity="0.15" d="M348.272 575.447L346.078 577.232L348.421 579.092L348.942 577.084L348.272 575.447Z" fill="#231F20"/>
<path opacity="0.15" d="M363.259 566.705L362.181 564.585L359.391 564.771L358.127 566.259L361.288 568.007L363.259 566.705Z" fill="#231F20"/>
<path opacity="0.15" d="M327.928 567.338L330.978 567.375L331.053 564.474L326.85 564.326L327.928 567.338Z" fill="#231F20"/>
<path opacity="0.15" d="M350.057 562.764L349.685 560.607L347.23 561.871L349.127 563.694L350.057 562.764Z" fill="#231F20"/>
<path opacity="0.15" d="M364.823 561.089L363.075 559.378L361.476 560.011L361.848 562.131L364.823 561.089Z" fill="#231F20"/>
<path opacity="0.15" d="M330.683 556.105L332.505 555.436L330.608 552.386L328.265 552.535L328.154 554.915L330.683 556.105Z" fill="#231F20"/>
<path opacity="0.15" d="M329.264 581.36L330.305 580.058L327.59 578.459L327.441 580.913L327.962 581.174L326.884 582.55L329.338 583.443L329.785 582.215L329.264 581.36Z" fill="#231F20"/>
<path opacity="0.15" d="M342.617 574.664L340.312 573.808L339.121 575.035L340.349 576.821L342.617 574.664Z" fill="#231F20"/>
<path opacity="0.15" d="M321.68 570.759L320.936 572.73L321.457 574.404L323.837 572.842L321.68 570.759Z" fill="#231F20"/>
<path opacity="0.15" d="M306.281 581.434L305.946 580.765L303.38 582.55L305.537 583.703L306.318 583.145L306.616 583.926L309.405 584.001L310.818 582.662L307.806 580.616L306.281 581.434Z" fill="#231F20"/>
<path opacity="0.15" d="M289.767 564.4L291.701 562.28L288.651 559.416L287.498 562.355L289.767 564.4Z" fill="#231F20"/>
<path opacity="0.15" d="M305.576 571.094L305.762 573.697L307.064 573.623L308.254 571.763L305.576 571.094Z" fill="#231F20"/>
<path opacity="0.15" d="M319.04 579.686L317.44 579.128L316.362 580.951L319.263 582.141L319.04 579.686Z" fill="#231F20"/>
<path opacity="0.15" d="M314.128 561.462L312.008 561.61L310.707 562.763L313.124 564.288L314.128 561.462Z" fill="#231F20"/>
<path opacity="0.15" d="M298.807 556.515L299.402 552.945L297.542 551.494L295.906 553.205L296.984 555.771L298.807 556.515Z" fill="#231F20"/>
<path opacity="0.15" d="M182.316 620.673L181.647 620.487L183.953 618.293L180.903 616.694L180.122 618.218L181.089 620.338L179.787 620.004L179.452 621.268L180.791 622.979L182.316 620.673Z" fill="#231F20"/>
<path opacity="0.15" d="M170.825 629.264L169.449 627.627L167.404 629.97L169.747 630.603L170.825 629.264Z" fill="#231F20"/>
<path opacity="0.15" d="M198.31 619.074L201.472 620.785L203.443 619.483L202.364 617.401L199.612 617.587L198.31 619.074Z" fill="#231F20"/>
<path opacity="0.15" d="M168.149 620.151H171.199L171.236 617.287L167.033 617.138L168.149 620.151Z" fill="#231F20"/>
<path opacity="0.15" d="M190.241 615.577L189.907 613.42L187.452 614.684L189.349 616.507L190.241 615.577Z" fill="#231F20"/>
<path opacity="0.15" d="M203.255 612.194L201.656 612.826L202.065 614.946L205.004 613.904L203.255 612.194Z" fill="#231F20"/>
<path opacity="0.15" d="M188.604 604.606L187.451 601.816L186.001 603.304L185.777 605.052L188.604 604.606Z" fill="#231F20"/>
<path opacity="0.15" d="M170.863 608.92L172.723 608.251L170.789 605.201L168.446 605.35L168.371 607.693L170.863 608.92Z" fill="#231F20"/>
<path opacity="0.15" d="M168.815 633.169L167.067 635.327L169.559 636.219L170.005 634.992L168.815 633.169Z" fill="#231F20"/>
<path opacity="0.15" d="M180.532 629.599L182.801 627.442L180.793 626.736L182.578 625.211L179.602 623.946L177.929 625.508L179.379 627.777L179.305 627.851L180.532 629.599Z" fill="#231F20"/>
<path opacity="0.15" d="M145.945 634.546L146.838 636.741L149.59 636.815L151.003 635.439L148.028 633.431L145.945 634.546Z" fill="#231F20"/>
<path opacity="0.15" d="M127.681 615.169L129.95 617.215L131.921 615.095L128.871 612.194L127.681 615.169Z" fill="#231F20"/>
<path opacity="0.15" d="M148.438 624.578L145.76 623.908L145.983 626.512L147.285 626.4L148.438 624.578Z" fill="#231F20"/>
<path opacity="0.15" d="M157.621 631.943L156.542 633.765L159.444 634.955L159.258 632.501L157.621 631.943Z" fill="#231F20"/>
<path opacity="0.15" d="M154.313 614.276L152.23 614.425L150.928 615.578L153.309 617.103L154.313 614.276Z" fill="#231F20"/>
<path opacity="0.15" d="M137.722 604.307L136.123 606.018L137.164 608.584L138.987 609.291L139.582 605.757L137.722 604.307Z" fill="#231F20"/>
<path opacity="0.15" d="M242.832 612.713L241.865 609.998L237.885 611.374L239.968 613.792L242.832 612.713Z" fill="#231F20"/>
<path opacity="0.15" d="M255.998 601.741L258.453 602.746L258.936 601.556L257.858 599.659L255.998 601.741Z" fill="#231F20"/>
<path opacity="0.15" d="M268.603 594.86L269.718 596.683L272.099 594.637L269.867 593.67L268.603 594.86Z" fill="#231F20"/>
<path opacity="0.15" d="M253.429 591.887L251.383 589.692L250.565 591.663L250.974 593.337L253.429 591.887Z" fill="#231F20"/>
<path opacity="0.15" d="M238.477 602.336L239.965 601.034L237.064 598.877L234.944 599.881L235.688 602.113L238.477 602.336Z" fill="#231F20"/>
<path opacity="0.15" d="M266.485 606.651L270.651 607.395L269.981 604.271L266.969 603.824L266.485 606.651Z" fill="#231F20"/>
<path opacity="0.15" d="M247.48 607.841L250.083 606.911L248.484 604.828L247.443 605.646L247.48 607.841Z" fill="#231F20"/>
<path opacity="0.15" d="M232.566 605.201L234.09 607.135L235.764 606.726L235.653 604.606L232.566 605.201Z" fill="#231F20"/>
<path opacity="0.15" d="M247.515 616.768L248.221 619.669L249.895 618.367L250.341 616.694L247.515 616.768Z" fill="#231F20"/>
<path opacity="0.15" d="M266.82 615.762L267.824 616.171L268.048 612.712L266.337 612.6L264.44 614.795L265.184 615.092L263.77 615.39L265.221 618.7L267.564 618.849L267.973 616.543L266.82 615.762Z" fill="#231F20"/>
<path opacity="0.15" d="M287.312 579.687L288.056 582.476L292.147 581.435L290.288 578.868L287.312 579.687Z" fill="#231F20"/>
<path opacity="0.15" d="M273.181 589.393L270.875 588.129L270.243 589.282L271.173 591.29L273.181 589.393Z" fill="#231F20"/>
<path opacity="0.15" d="M260.012 595.047L259.045 593.15L256.478 594.936L258.636 596.089L260.012 595.047Z" fill="#231F20"/>
<path opacity="0.15" d="M274.855 599.398L276.678 601.779L277.682 599.919L277.384 598.208L274.855 599.398Z" fill="#231F20"/>
<path opacity="0.15" d="M294.01 593.186L293.452 590.88L290.7 590.434L289.1 591.55L291.778 593.967L294.01 593.186Z" fill="#231F20"/>
<path opacity="0.15" d="M305.126 614.423L307.73 617.696L309.329 614.944L307.358 612.6L305.126 614.423Z" fill="#231F20"/>
<path opacity="0.15" d="M292.818 601.109L291.516 601.035L290.103 602.708L292.669 603.75L292.818 601.109Z" fill="#231F20"/>
<path opacity="0.15" d="M283.41 592.442L280.695 590.843L280.584 592.591L279.505 592.814L280.993 594.748L282.667 594.339L282.629 593.409L283.41 592.442Z" fill="#231F20"/>
<path opacity="0.15" d="M286.384 611.226L284.226 609.403L282.813 612.044L284.933 612.193L286.384 611.226Z" fill="#231F20"/>
<path opacity="0.15" d="M297.279 619.146L296.163 622.568L297.837 624.279L299.659 622.791L298.953 620.113L297.279 619.146Z" fill="#231F20"/>
</g>
<path d="M972.035 398.222C974.936 402.202 966.977 401.83 966.977 401.83L907.468 401.086C906.687 401.086 906.389 400.231 906.389 399.487L906.724 400.64C906.724 391.118 932.61 390.895 941.388 387.734C951.579 384.089 968.65 384.275 968.948 394.354C969.022 396.511 971.44 397.404 972.035 398.222Z" fill="#079D49"/>
<path opacity="0.1" d="M918.549 267.528C918.549 223.455 899.284 183.881 868.748 156.731C867.856 126.381 843.011 102.057 812.475 102.057C809.202 102.057 806.041 102.355 802.917 102.875C784.06 57.4629 739.28 25.5143 687.024 25.5143C673.783 25.5143 661.026 27.5599 649.05 31.3908C639.082 22.3901 625.842 16.8855 611.337 16.8855C606.464 16.8855 601.741 17.5178 597.203 18.6708C578.049 6.84348 555.51 0 531.372 0C500.948 0 473.054 10.8231 451.333 28.8616C442.481 23.0968 431.918 19.7122 420.575 19.7122C391.75 19.7122 368.021 41.3584 364.674 69.2903C364.525 69.2903 364.413 69.2903 364.265 69.2903C321.009 69.2903 285.936 104.363 285.936 147.618C285.936 151.263 286.197 154.871 286.68 158.404C286.42 158.404 286.197 158.367 285.936 158.367C264.253 158.367 246.512 175.178 244.987 196.453C240.896 195.076 236.544 194.333 232.007 194.333C209.319 194.333 190.946 212.706 190.946 235.393C190.946 250.605 199.203 263.846 211.476 270.95C207.46 278.686 205.191 287.463 205.191 296.799C205.191 304.572 206.753 311.936 209.58 318.668C197.938 332.318 190.946 350.059 190.946 369.399C190.946 412.655 226.019 447.727 269.274 447.727C272.659 447.727 276.006 447.504 279.316 447.095L775.915 415.556C855.173 412.655 918.549 347.493 918.549 267.528Z" fill="#006747"/>
<path d="M8.14523 635.921C2.30596 635.921 0.0371928 629.264 0 623.424C0 548.072 153.383 446.015 219.996 421.058C297.506 392.122 501.917 426.414 546.66 496.002L8.14523 635.921Z" fill="#079D49"/>
<path d="M182.914 421.692C182.914 469.15 154.685 485.738 119.91 485.738C85.1345 485.738 56.9051 469.15 56.9051 421.692C56.9051 374.234 119.91 313.87 119.91 313.87C119.91 313.87 182.914 374.234 182.914 421.692Z" fill="#006747"/>
<path opacity="0.2" d="M182.914 421.692C182.914 469.15 154.685 485.738 119.91 485.738C85.1345 485.738 56.9051 469.15 56.9051 421.692C56.9051 374.234 119.91 313.87 119.91 313.87C119.91 313.87 182.914 374.234 182.914 421.692Z" fill="#231F20"/>
<path d="M117.601 478.485L118.233 438.763L145.087 389.632L118.345 432.515L118.605 414.662L137.127 379.106L118.68 409.939L119.2 377.804L139.024 349.501L119.312 372.783L119.609 313.87L117.564 391.826L117.75 388.627L97.5913 357.757L117.415 394.802L115.555 430.655L115.481 429.726L92.2727 397.256L115.407 433.073L115.183 437.573L115.146 437.648V438.02L110.386 529.03H116.746L117.527 482.019L140.623 446.276L117.601 478.485Z" fill="white"/>
<path d="M247.148 423.923C247.148 457.954 226.915 469.819 201.958 469.819C177.002 469.819 156.769 457.954 156.769 423.923C156.769 389.891 201.958 346.599 201.958 346.599C201.958 346.599 247.148 389.891 247.148 423.923Z" fill="#006747"/>
<path d="M200.321 464.649L200.767 436.159L220.033 400.937L200.841 431.696L201.065 418.864L214.342 393.387L201.102 415.48L201.474 392.457L215.681 372.187L201.548 388.85L201.771 346.599L200.321 402.499L200.432 400.193L185.964 378.101L200.209 404.657L198.87 430.357L198.796 429.687L182.171 406.405L198.759 432.105L198.61 435.304L198.573 435.341V435.601L195.151 500.875H199.726L200.283 467.178L216.834 441.552L200.321 464.649Z" fill="white"/>
<path d="M71.2596 485.291C73.4539 489.903 71.4827 492.841 68.061 494.44C64.6764 496.04 61.1431 495.742 58.9859 491.13C56.7916 486.518 60.1389 477.704 60.1389 477.704C60.1389 477.704 69.0652 480.679 71.2596 485.291Z" fill="#006747"/>
<path d="M249.416 472.2C246.701 476.552 243.167 476.44 240.006 474.432C236.845 472.424 235.208 469.299 237.923 464.985C240.638 460.633 249.862 458.737 249.862 458.737C249.862 458.737 252.131 467.886 249.416 472.2Z" fill="#006747"/>
<path d="M143.749 542.607C141.034 546.958 137.5 546.847 134.339 544.838C131.178 542.83 129.541 539.706 132.256 535.391C134.971 531.04 144.195 529.143 144.195 529.143C144.195 529.143 146.464 538.293 143.749 542.607Z" fill="#006747"/>
<path d="M226.767 570.539C227.288 575.634 224.424 577.717 220.705 578.089C216.986 578.461 213.787 576.973 213.266 571.878C212.746 566.782 218.883 559.641 218.883 559.641C218.883 559.641 226.284 565.48 226.767 570.539Z" fill="#006747"/>
<path d="M39.387 586.085C39.9077 591.18 37.0438 593.263 33.3245 593.635C29.6053 594.007 26.4067 592.519 25.886 587.424C25.3653 582.329 31.5021 575.188 31.5021 575.188C31.5021 575.188 38.8663 580.99 39.387 586.085Z" fill="#006747"/>
<path opacity="0.4" d="M220.025 646.821L896.154 401.199L925.648 400.492L573.134 648.569L220.025 646.821Z" fill="#DA924E"/>
<path d="M175.843 644.18L896.157 401.199H895.71L145.419 644.18H175.843Z" fill="#4F4848"/>
<path d="M175.842 644.18V677.876L896.155 401.273V401.199L175.842 644.18Z" fill="#684B41"/>
<path d="M175.842 644.18V652.436L896.155 401.199L175.842 644.18Z" fill="#403A3A"/>
<path d="M414.173 555.102H706.025L721.981 548.295H443.072L414.173 555.102Z" fill="#403A3A"/>
<path d="M706.025 555.104H414.173V557.633H706.025V555.104Z" fill="#4F4848"/>
<path d="M467.026 535.129H733.549L747.274 529.253H491.87L467.026 535.129Z" fill="#403A3A"/>
<path d="M733.512 535.13H467.026V537.324H733.512V535.13Z" fill="#4F4848"/>
<path d="M502.208 516.906H758.801L771.67 511.439H525.453L502.208 516.906Z" fill="#606060"/>
<path d="M758.801 516.906H502.208V518.951H758.801V516.906Z" fill="#4F4848"/>
<path d="M557.439 670.736L925.648 400.492H924.942L527.015 670.736H557.439Z" fill="#4F4848"/>
<path d="M557.441 670.736V700.713L925.65 400.976V400.492L557.441 670.736Z" fill="#684B41"/>
<path d="M557.441 670.736V678.992L925.65 400.641V400.492L557.441 670.736Z" fill="#403A3A"/>
<path d="M636.069 573.961C636.069 573.961 636.999 592.557 642.243 596.983L650.909 599.066C650.909 599.066 659.761 599.103 659.612 576.193L667.348 577.68L671.365 575.635L671.476 575.969C671.96 577.606 672.964 578.759 674.043 578.982L678.245 579.763C678.245 579.763 682.485 579.949 682.634 572.548L694.313 556.443L697.177 556.852V553.542L700.71 554.026C700.71 554.026 700.598 555.774 701.045 557.41C701.342 558.414 702.309 559.121 703.462 559.158L705.657 559.27C707.293 559.344 708.855 558.489 709.487 557.113C710.306 555.327 711.012 552.129 711.012 546.364L715.178 546.847C721.426 547.591 726.968 540.785 726.968 531.598L727.042 527.991L729.274 528.177C732.324 528.437 734.816 525.09 734.816 520.775V506.047L748.094 506.605C748.094 506.605 747.424 516.981 752.334 520.701C752.78 521.036 753.338 521.184 753.896 521.222L757.578 521.259C758.359 521.259 759.065 520.961 759.549 520.44C760.628 519.287 762.115 516.796 762.115 511.7L769.554 507.497C769.554 507.497 769.182 509.134 770.484 509.469L775.802 509.617C775.802 509.617 778.257 509.431 778.183 504.41L791.163 495.521L795.328 495.596C795.328 495.596 800.052 494.815 798.899 486.707L806.709 486.744L811.061 483.545H812.326V477.929L816.454 474.879C816.454 474.879 823.521 477.408 829.769 469.858V468.891L830.959 469.04L925.503 400.568C925.578 400.494 925.578 397.444 925.615 396.365C925.615 396.179 634.098 436.459 634.098 436.459L636.069 573.961Z" fill="#28201F"/>
<g opacity="0.12">
<g opacity="0.12">
<path opacity="0.12" d="M669.543 477.744C671.403 477.67 672.928 475.178 672.928 472.202V470.343L671.18 470.417V472.277C671.18 473.727 670.436 474.954 669.543 474.992L646.075 475.847V478.488L669.543 477.744Z" fill="white"/>
</g>
<path opacity="0.12" d="M753.712 506.905L778.482 493.144L778.37 503.484C778.37 503.484 788.264 499.058 788.264 488.383L788.301 473.357L784.693 473.395L784.656 482.842L778.742 485.631L778.779 470.94L753.786 481.466L753.712 506.905ZM775.581 487.677L777.664 486.561V489.499L775.581 490.912V487.677ZM769.444 491.173L771.601 490.094V493.479L769.444 494.743V491.173ZM764.237 493.739L766.766 492.549V496.529L764.237 497.756V493.739ZM758.063 496.231L760.481 495.562V499.95L758.063 500.917V496.231Z" fill="white"/>
<path opacity="0.12" d="M776.659 469.823L756.649 470.121L748.318 472.612C748.318 472.612 747.611 474.956 746.161 475.328L753.19 475.29V477.299L743.818 477.336V479.865H753.19L776.659 469.823Z" fill="white"/>
<path opacity="0.12" d="M748.319 470.269V469.562C748.319 462.905 744.451 457.66 739.69 457.846L735.078 458.032L728.495 460.264L729.908 460.227C734.483 460.078 738.239 465.248 738.202 471.756V476.629L748.319 470.269Z" fill="white"/>
<path opacity="0.12" d="M699.521 516.685L696.397 516.462L693.347 531.6C692.194 537.364 688.624 540.972 684.681 540.489L683.9 540.377V537.774L681.408 537.476V535.133L683.975 535.43V533.013L681.408 532.901V530.186L684.198 530.484V527.992L681.408 527.731V525.574L684.198 525.835L684.086 523.752L681.408 523.529V520.33L684.309 520.404L684.235 515.569L685.909 515.681V512.445L687.805 512.557V508.986L684.756 508.8L680.59 510.474C677.949 511.515 676.164 515.16 676.164 519.4L676.127 543.576C676.09 556.816 677.726 566.784 680.367 569.201C681.892 570.615 683.751 568.197 684.979 566.524L694.426 553.395C696.806 549.117 698.48 545.472 699.038 540.377C699.67 534.872 700.116 528.699 699.521 516.685Z" fill="white"/>
<path opacity="0.12" d="M677.43 482.393L682.711 482.43C687.175 482.467 690.819 488.121 690.819 495.113C690.819 502.068 687.1 507.535 682.674 507.275L676.835 506.94L678.843 507.052C682.488 507.275 685.464 502.812 685.464 497.084V494.072C685.464 488.344 682.488 483.695 678.881 483.658L676.24 483.62L677.43 482.393Z" fill="white"/>
<path opacity="0.12" d="M676.648 490.465L682.264 495.672V498.016L680.218 497.904L675.234 493.106L665.936 492.846L663.072 488.048L664.3 487.527L665.973 490.205L676.648 490.465Z" fill="white"/>
<path opacity="0.12" d="M672.406 514.714L666.901 514.305L666.79 568.347L671.104 567.119V571.508L662.847 575.599C662.847 575.599 665.934 573.293 665.971 564.664L666.046 535.691C666.083 525.984 661.248 517.764 655.409 517.281L651.95 516.983V511.293L656.822 511.627L659.202 509.954V502.292L663.331 502.478L665.86 512.855L672.369 513.301L672.406 514.714Z" fill="white"/>
<path opacity="0.12" d="M658.199 584.153C658.199 584.153 654.591 590.513 651.318 585.753C648.082 581.029 647.525 569.834 647.301 560.647C647.078 551.498 645.962 520.479 651.95 520.628C651.95 520.628 645.144 519.438 642.466 523.715L642.355 576.826C642.355 576.826 643.694 595.609 650.835 597.394C656.786 598.956 658.199 584.153 658.199 584.153Z" fill="white"/>
<path opacity="0.12" d="M711.347 544.842C711.347 544.842 704.392 544.247 702.942 523.642L705.322 523.865V517.393L701.752 517.133V509.881L698.925 509.695L692.639 498.388V492.028L698.925 493.367L698.479 490.763L692.193 489.239C692.193 489.239 691.561 483.697 686.614 481.726L693.718 481.763C693.718 481.763 696.321 474.064 700.822 479.829H706.661V482.618L716.815 482.693V486.858L721.761 497.793V501.921L704.578 501.177V506.012L705.917 506.087L708.707 526.952L712.872 527.324V524.944L710.975 524.795V522.749L717.447 523.27V521.224L711.199 520.741V517.803L717.447 518.249V515.98L711.013 515.534V513.265L717.447 513.674V510.773L711.347 510.401V508.876L717.447 509.211V506.831L711.942 506.533V504.785L720.794 505.231L720.757 519.625C720.757 519.625 723.472 518.1 724.588 511.182C724.588 511.182 722.914 509.657 722.952 503.632C722.989 497.644 723.361 488.346 727.489 487.9C731.655 487.416 732.101 503.595 732.101 503.595L729.832 503.483C729.832 503.483 729.795 499.504 728.307 499.69C726.82 499.876 726.82 505.12 728.307 505.603C729.795 506.05 733.403 508.356 733.403 515.869C733.403 523.382 729.237 523.977 729.237 523.977L729.274 512.819L730.65 512.893V511.517L726.671 511.294C726.671 511.294 726.41 523.791 726.373 527.956C726.373 535.506 724.514 546.404 711.347 544.842Z" fill="white"/>
<path opacity="0.12" d="M735.076 473.841L724.811 473.952C724.811 473.952 724.29 471.423 724.811 470.642C725.332 469.898 735.076 470.493 735.076 470.493V473.841Z" fill="white"/>
<path opacity="0.12" d="M724.81 465.621L721.017 465.695L720.98 482.692L724.55 482.729V479.828H722.43L722.467 467.629L724.81 467.592V465.621Z" fill="white"/>
<path opacity="0.12" d="M703.573 472.241C703.573 472.241 696.543 471.498 692.006 474.436C687.543 477.3 677.761 481.391 675.009 482.023C672.294 482.655 664.967 483.66 661.396 484.143C657.9 484.627 650.164 488.718 650.164 488.718H649.16V486.152L662.289 480.833C662.289 480.833 681.629 479.792 687.766 474.51C694.051 469.117 699.035 470.307 699.035 470.307L703.573 472.241Z" fill="white"/>
<path opacity="0.12" d="M796.67 444.607C796.67 444.607 803.662 448.252 799.497 455.691L818.986 446.764C818.986 446.764 822.407 440.07 815.861 436.983L796.67 444.607Z" fill="white"/>
<path opacity="0.12" d="M828.096 439.659C828.096 439.659 823.373 444.68 820.732 438.766C820.732 438.766 819.877 445.647 826.423 445.238C826.423 445.238 830.254 445.015 830.998 439.361L828.096 439.659Z" fill="white"/>
<path opacity="0.12" d="M797.223 447.619L797.186 454.686L793.169 454.834V449.813C793.207 449.813 797.112 450.408 797.223 447.619Z" fill="white"/>
<path opacity="0.12" d="M767.656 465.806V467.777L771.635 467.703L771.672 460.413L767.693 460.562L767.656 463.277L758.766 463.537V466.066L767.656 465.806Z" fill="white"/>
<path opacity="0.12" d="M772.195 455.243C772.195 455.243 781.344 454.388 785.845 467.777L790.568 465.36C790.568 465.36 787.109 449.776 773.088 451.375L772.195 455.243Z" fill="white"/>
<path opacity="0.12" d="M781.348 470.903H780.157V468.411L777.331 468.449C777.331 468.449 777.07 463.651 773.091 462.981V458.704L776.066 458.593C776.103 458.63 781.943 462.014 781.348 470.903Z" fill="white"/>
<path opacity="0.12" d="M806.006 453.793L805.969 467.443C805.969 470.604 803.886 473.17 801.394 473.208H801.283" fill="white"/>
<path opacity="0.12" d="M798.121 461.082L798.047 490.427C798.047 491.989 797.266 493.365 796.075 493.811C794.216 494.555 792.319 492.77 792.319 490.315L792.393 461.231C792.393 459.408 793.472 457.846 794.885 457.548C796.633 457.251 798.121 458.887 798.121 461.082Z" fill="white"/>
<path opacity="0.12" d="M807.007 485.777L807.044 474.656L810.205 473.392L810.466 483.136L807.007 485.777Z" fill="white"/>
<path opacity="0.12" d="M816.084 473.839C816.084 473.839 810.914 469.785 811.063 462.16C811.211 455.243 812.253 451.635 819.915 448.883C819.915 448.883 815.377 452.527 815.451 462.086C815.526 471.645 825.307 470.864 825.977 464.578L828.543 464.541L828.692 469.19C828.729 469.19 824.675 476.145 816.084 473.839Z" fill="white"/>
<path opacity="0.12" d="M830.216 456.137V461.047L833.898 466.217L836.129 464.58L830.216 456.137Z" fill="white"/>
<path opacity="0.12" d="M828.688 450.595L838.619 462.72L841.594 460.488L830.25 446.69L828.688 446.764V450.595Z" fill="white"/>
<path opacity="0.12" d="M841.261 446.131L835.459 446.428V450.296L838.881 454.09L841.261 453.979V446.131Z" fill="white"/>
<g opacity="0.12">
<path opacity="0.12" d="M844.983 429.952C844.983 429.952 856.364 438.989 847.624 456.135L857.777 448.548C857.777 448.548 862.426 436.572 853.054 426.418L844.983 429.952Z" fill="white"/>
<path opacity="0.12" d="M875.518 417.938C875.518 417.938 881.841 425.414 876.746 434.675L881.841 430.472C881.841 430.472 884.631 421.695 879.386 416.376L875.518 417.938Z" fill="white"/>
<path opacity="0.12" d="M891.253 410.724C891.253 410.724 895.716 415.856 892.852 423.407L895.084 421.77C895.084 421.77 897.836 417.121 893.336 409.868L891.253 410.724Z" fill="white"/>
<path opacity="0.12" d="M895.045 409.237C895.045 409.237 898.913 414.332 896.458 421.101L898.392 419.688C898.392 419.688 900.549 414.369 896.83 408.567L895.045 409.237Z" fill="white"/>
<path opacity="0.12" d="M903.003 405.925C903.003 405.925 906.388 410.016 903.822 415.557L905.495 414.33C905.495 414.33 906.909 408.9 904.045 405.515L903.003 405.925Z" fill="white"/>
<path opacity="0.12" d="M907.949 404.512C907.949 404.512 910.366 407.859 908.506 412.359L909.883 411.318C909.883 411.318 911.073 407.45 909.064 404.14L907.949 404.512Z" fill="white"/>
<path opacity="0.12" d="M912.115 402.688C912.115 402.688 913.751 405.738 912.561 409.086L913.454 408.342C913.454 408.342 914.421 405.255 912.635 402.391L912.115 402.688Z" fill="white"/>
<path opacity="0.12" d="M913.903 401.945C913.903 401.945 915.539 404.846 914.423 407.896L915.056 407.338C915.056 407.338 916.134 405.143 914.386 401.684L913.903 401.945Z" fill="white"/>
<path opacity="0.12" d="M916.693 400.941C916.693 400.941 918.255 403.285 917.511 405.814L917.846 405.553C917.846 405.553 918.627 403.322 916.99 400.793L916.693 400.941Z" fill="white"/>
</g>
</g>
<path d="M871.426 347.049L898.205 367.691C899.916 368.992 900.883 370.889 900.883 372.898V405.516L875.034 415.074L871.426 347.049Z" fill="#1C558A"/>
<path d="M875.037 364.863L900.886 377.657V389.187L875.037 385.43V364.863Z" fill="#FCC172"/>
<path d="M875.033 415.034L860.974 415.183V344.889L867.892 344.777C871.834 344.703 875.033 347.455 875.033 350.877V415.034Z" fill="#1C558A"/>
<path d="M875.035 385.43L860.977 385.579V365.086L875.035 364.863V385.43Z" fill="#FCC172"/>
<path d="M875.038 389.894L862.02 390.043V391.828L875.038 391.679V389.894Z" fill="#FCC172"/>
<path d="M875.038 393.278L862.02 393.427V395.212L875.038 395.026V393.278Z" fill="#FCC172"/>
<path d="M873.508 347.046L898.205 367.688C899.729 368.878 900.659 370.515 900.845 372.263L875.033 354.522L860.974 354.708V344.889L866.516 344.777C869.306 344.628 871.463 345 873.508 347.046Z" fill="#EDDAC5"/>
<path d="M867.969 415.11L860.977 415.184V365.904L867.969 365.792V415.11Z" fill="#403A3A"/>
<path d="M875.037 389.894V391.679L900.886 392.349V391.233L875.037 389.894Z" fill="#FCC172"/>
<path d="M875.037 395.026L900.886 394.729V393.576L875.037 393.278" fill="#FCC172"/>
<path opacity="0.2" d="M875.033 415.034L860.974 415.183V344.889L867.892 344.777C871.834 344.703 875.033 347.455 875.033 350.877V415.034Z" fill="#231F20"/>
<path d="M876.413 366.461V412.915L881.843 411.242V368.991L876.413 366.461Z" fill="#403A3A"/>
<path d="M884.484 371.073V385.021L900.105 387.81V378.363L884.484 371.073Z" fill="#403A3A"/>
<path d="M920.483 386.173L916.131 383.83L916.838 399.562L921.19 398V387.289C921.19 386.842 920.929 386.433 920.483 386.173Z" fill="#1C558A"/>
<path d="M916.876 399.563L913.156 399.6V383.718L915.909 383.681C916.466 383.681 916.876 384.053 916.876 384.537V399.563Z" fill="#1C558A"/>
<path d="M913.156 393.127V393.834L916.876 393.797V393.09L913.156 393.127Z" fill="#FCC172"/>
<path d="M913.156 394.356V395.025L916.876 394.988V394.319L913.156 394.356Z" fill="#FCC172"/>
<path d="M916.876 394.318L921.191 394.169V394.616L916.876 394.988V394.318Z" fill="#FCC172"/>
<path d="M916.876 393.797L921.191 393.871V393.388L916.876 393.09V393.797Z" fill="#FCC172"/>
<path d="M913.156 387.401L916.876 387.364V391.827L913.156 391.864V387.401Z" fill="#FCC172"/>
<path d="M916.876 387.364L921.191 388.926V392.347L916.876 391.827V387.364Z" fill="#FCC172"/>
<path d="M915.388 383.681C915.649 383.681 916.058 383.644 916.281 383.755L916.355 383.793L920.484 386.21C920.93 386.433 921.19 386.842 921.19 387.4L916.839 385.28L913.157 385.355V383.718L915.388 383.681Z" fill="#EDDAC5"/>
<path opacity="0.2" d="M916.876 399.563L913.156 399.6V383.718L915.909 383.681C916.466 383.681 916.876 384.053 916.876 384.537V399.563Z" fill="#231F20"/>
<path d="M917.175 387.699V399.452L917.696 399.266V387.885L917.175 387.699Z" fill="#403A3A"/>
<path d="M918.068 388.367V391.268L920.969 391.789V389.372L918.068 388.367Z" fill="#403A3A"/>
<path d="M905.425 374.682L913.384 380.707C914.016 381.19 914.388 381.897 914.388 382.604V400.493L906.355 403.469L905.425 374.682Z" fill="#1C558A"/>
<path d="M906.352 403.467L900.847 403.541V374.084L904.418 374.047C905.496 374.047 906.352 374.791 906.352 375.721V403.467Z" fill="#1C558A"/>
<path d="M900.884 392.013V393.166L906.351 393.091V391.938L900.884 392.013Z" fill="#FCC172"/>
<path d="M900.884 394.171V395.324L906.351 395.286V394.096L900.884 394.171Z" fill="#FCC172"/>
<path d="M906.354 391.938L914.425 392.905V393.575L906.354 393.091V391.938Z" fill="#FCC172"/>
<path d="M906.354 394.096V395.286L914.425 394.803V394.133L906.354 394.096Z" fill="#FCC172"/>
<path d="M900.884 381.524L906.351 381.45V389.856L900.884 389.93V381.524Z" fill="#FCC172"/>
<path d="M906.354 381.45L914.425 384.872V390.971L906.354 389.856V381.45Z" fill="#FCC172"/>
<path d="M905.905 374.569L913.418 380.669C914.013 381.115 914.348 381.747 914.422 382.417L906.388 377.954L900.884 378.028V374.048L903.487 374.011C904.492 374.011 905.161 373.862 905.905 374.569Z" fill="#EDDAC5"/>
<path opacity="0.2" d="M906.352 403.467L900.847 403.541V374.084L904.418 374.047C905.496 374.047 906.352 374.791 906.352 375.721V403.467Z" fill="#231F20"/>
<path d="M906.873 382.046L908.1 382.53V402.874L906.873 403.246V382.046Z" fill="#403A3A"/>
<path d="M908.994 383.385V389.484L914.163 390.414V385.393L908.994 383.385Z" fill="#403A3A"/>
<path d="M922.419 397.554L925.654 396.364V390.487C925.654 390.115 925.431 389.743 925.059 389.557L921.972 388.032L922.419 397.554Z" fill="#1C558A"/>
<path d="M921.637 387.921C921.451 387.921 921.191 387.921 921.191 387.921V397.516H922.418C922.418 397.516 922.418 391.231 922.418 388.627C922.418 388.255 922.046 387.921 921.637 387.921Z" fill="#1C558A"/>
<path d="M921.193 393.5H922.42V393.871L921.193 393.909V393.5Z" fill="#FCC172"/>
<path d="M921.193 394.281V394.653H922.42V394.243L921.193 394.281Z" fill="#FCC172"/>
<path d="M922.422 394.281H925.657V394.504L922.422 394.653V394.281Z" fill="#FCC172"/>
<path d="M922.422 393.5V393.871L925.657 394.02V393.76L922.422 393.5Z" fill="#FCC172"/>
<path d="M921.193 390.338V392.793L922.42 392.755V390.338H921.193Z" fill="#FCC172"/>
<path d="M922.422 390.338L925.657 391.416V393.239L922.422 392.755V390.338Z" fill="#FCC172"/>
<path d="M921.972 387.995L925.059 389.52C925.319 389.632 925.542 389.892 925.654 390.264L922.418 388.962H921.191V387.921C921.191 387.921 921.414 387.921 921.637 387.921C921.748 387.921 921.86 387.958 921.972 387.995Z" fill="#EDDAC5"/>
<path opacity="0.2" d="M921.637 387.921C921.451 387.921 921.191 387.921 921.191 387.921V397.516H922.418C922.418 397.516 922.418 391.231 922.418 388.627C922.418 388.255 922.046 387.921 921.637 387.921Z" fill="#231F20"/>
<path d="M922.641 390.525V397.443L922.901 397.331V390.636L922.641 390.525Z" fill="#403A3A"/>
<path d="M923.166 390.897V392.459L925.472 392.905V391.641L923.166 390.897Z" fill="#403A3A"/>
<path d="M841.859 411.836L855.286 415.22V338.231C855.286 333.731 851.12 330.197 845.987 330.272L842.156 330.346L841.859 411.836Z" fill="#1C558A"/>
<path d="M857.217 336.15C858.482 337.191 860.974 338.79 860.974 341.729C860.974 342.212 861.011 344.146 861.011 344.146V416.412L855.32 418.904V342.956V341.766L854.577 338.121L852.754 332.728L857.217 336.15Z" fill="#1C558A"/>
<path d="M860.977 385.541L855.287 384.834L841.972 385.02L842.046 358.836L842.827 358.799C844.389 358.91 844.613 360.287 844.687 361.551V367.205C844.687 369.287 847.105 370.068 848.592 369.957L850.675 369.734C852.126 369.622 854.134 368.804 854.134 365.754V360.324C854.134 359.022 855.027 359.171 855.919 359.506L856.626 359.878V351.583L857.556 352.067V372.523L859.229 372.374V361.03L860.977 361.886V385.541Z" fill="#FCC172"/>
<path d="M860.38 350.134L856.066 347.195V349.241L857.517 350.096V372.524L859.227 372.896V351.101L860.38 351.807V350.134Z" fill="#403A3A"/>
<path opacity="0.2" d="M854.542 341.43C854.542 341.43 852.98 339.124 849.372 337.71C847.513 337.004 844.165 336.743 842.157 336.669V339.31C842.157 339.31 851.12 337.971 854.542 341.43Z" fill="#231F20"/>
<path opacity="0.2" d="M841.859 411.836L855.286 415.22V338.231C855.286 333.731 851.12 330.197 845.987 330.272L842.156 330.346L841.859 411.836Z" fill="#231F20"/>
<path d="M589.432 147.062C589.432 147.062 602.821 150.149 616.136 159.075L672.595 194.036L839.145 322.203C841.488 324.025 842.827 326.629 842.827 329.381V410.164L672.483 440.699L611.115 441.145L580.468 445.609L343.401 443.042L344.666 174.733C344.777 170.456 347.344 166.476 351.435 164.245C372.151 153.013 476.589 127.833 589.432 147.062Z" fill="#1C558A"/>
<path d="M672.596 274.074L615.356 272.847L595.756 270.355C583.78 268.793 574.295 271.471 565.592 279.914L459.667 382.566L344.183 269.872V378.475L404.064 439.099L514.489 440.103L573.849 385.169C585.974 373.863 591.33 370.999 613.088 370.813L619.299 370.739L672.633 369.958V274.074H672.596Z" fill="#FCC172"/>
<path opacity="0.15" d="M615.948 175.96V441.145L588.5 440.773V146.912C588.5 146.912 602.819 149.85 609.849 158.033C615.948 165.174 615.948 175.96 615.948 175.96Z" fill="#231F20"/>
<path d="M672.598 440.735V194.035L839.036 322.388C841.64 324.396 843.165 327.334 843.127 330.421L842.83 410.237L672.598 440.735Z" fill="#1C558A"/>
<path d="M843.123 384.946L672.594 369.994V274.074L843.123 349.799V384.946Z" fill="#FCC172"/>
<path opacity="0.2" d="M673.078 440.662L744.972 427.719V275.749L673.078 232.642V440.662Z" fill="#231F20"/>
<g opacity="0.2">
<g opacity="0.2">
<path opacity="0.2" d="M731.587 346.936L732.777 347.196V380.186L731.587 380.112V346.936Z" fill="#231F20"/>
<path opacity="0.2" d="M736.57 348.015L737.686 348.238V380.484L736.57 380.41V348.015Z" fill="#231F20"/>
<path opacity="0.2" d="M684.129 336.521L685.915 336.931V377.396L684.129 377.285V336.521Z" fill="#231F20"/>
<path opacity="0.2" d="M742.374 342.955L741.295 342.695V311.118L742.374 311.564V342.955Z" fill="#231F20"/>
<path opacity="0.2" d="M696.586 339.236L698.223 339.608V378.14L696.586 378.028V339.236Z" fill="#231F20"/>
<path opacity="0.2" d="M707.894 341.729L709.382 342.063V378.81L707.894 378.698V341.729Z" fill="#231F20"/>
<path opacity="0.2" d="M725.115 345.485L726.379 345.783V379.814L725.115 379.74V345.485Z" fill="#231F20"/>
<path opacity="0.2" d="M716.824 343.699L718.2 343.997V379.33L716.824 379.256V343.699Z" fill="#231F20"/>
<path opacity="0.2" d="M741.295 380.707V349.055L742.374 349.279V380.781L741.295 380.707Z" fill="#231F20"/>
<path opacity="0.2" d="M709.382 334.662L707.894 334.29V297.395L709.382 298.027V334.662Z" fill="#231F20"/>
<path opacity="0.2" d="M684.131 279.802V242.275L685.916 243.353V280.583L684.131 279.802Z" fill="#231F20"/>
<path opacity="0.2" d="M696.586 292.782L698.223 293.451V331.872L696.586 331.463V292.782Z" fill="#231F20"/>
<path opacity="0.2" d="M726.379 338.94L725.115 338.642V304.462L726.379 304.983V338.94Z" fill="#231F20"/>
<path opacity="0.2" d="M732.777 340.539L731.587 340.241V307.139L732.777 307.623V340.539Z" fill="#231F20"/>
<path opacity="0.2" d="M718.2 336.893L716.824 336.558V301.076L718.2 301.634V336.893Z" fill="#231F20"/>
<path opacity="0.2" d="M737.686 341.803L736.57 341.505V309.147L737.686 309.631V341.803Z" fill="#231F20"/>
<path opacity="0.2" d="M737.686 386.546V415.408L736.57 415.52V386.509L737.686 386.546Z" fill="#231F20"/>
<path opacity="0.2" d="M685.915 288.394V328.786L684.129 328.339V287.65L685.915 288.394Z" fill="#231F20"/>
<path opacity="0.2" d="M726.379 386.212V416.673L725.115 416.822V386.175L726.379 386.212Z" fill="#231F20"/>
<path opacity="0.2" d="M732.777 386.397V415.965L731.587 416.076V386.359L732.777 386.397Z" fill="#231F20"/>
<path opacity="0.2" d="M718.2 385.99V417.604L716.824 417.752V385.915L718.2 385.99Z" fill="#231F20"/>
<path opacity="0.2" d="M685.915 385.02V421.246L684.129 421.432V384.946L685.915 385.02Z" fill="#231F20"/>
<path opacity="0.2" d="M709.382 385.693V418.608L707.894 418.757V385.656L709.382 385.693Z" fill="#231F20"/>
<path opacity="0.2" d="M698.223 385.392V419.87L696.586 420.056V385.318L698.223 385.392Z" fill="#231F20"/>
<path opacity="0.2" d="M742.374 386.694V414.886L741.295 414.998V386.657L742.374 386.694Z" fill="#231F20"/>
<path opacity="0.2" d="M707.894 290.291V256.26L709.382 257.115V290.923L707.894 290.291Z" fill="#231F20"/>
<path opacity="0.2" d="M696.586 285.307V249.602L698.223 250.569V286.014L696.586 285.307Z" fill="#231F20"/>
<path opacity="0.2" d="M716.824 294.234V261.505L718.2 262.286V294.829L716.824 294.234Z" fill="#231F20"/>
<path opacity="0.2" d="M736.57 302.899V273.07L737.686 273.74V303.419L736.57 302.899Z" fill="#231F20"/>
<path opacity="0.2" d="M725.115 297.879V266.34L726.379 267.083V298.437L725.115 297.879Z" fill="#231F20"/>
<path opacity="0.2" d="M741.295 305.019V275.86L742.374 276.492V305.465L741.295 305.019Z" fill="#231F20"/>
<path opacity="0.2" d="M731.587 300.743V270.171L732.777 270.877V301.264L731.587 300.743Z" fill="#231F20"/>
</g>
<g opacity="0.2">
<g opacity="0.2">
<path opacity="0.2" d="M678.587 427.049L742.856 418.569V417.342L678.587 425.413V427.049Z" fill="#231F20"/>
</g>
<g opacity="0.2">
<path opacity="0.2" d="M678.587 381.488L742.856 384.203V382.976L678.587 379.889V381.488Z" fill="#231F20"/>
</g>
<g opacity="0.2">
<path opacity="0.2" d="M678.587 331.797L742.856 346.712V345.484L678.587 330.161V331.797Z" fill="#231F20"/>
</g>
<g opacity="0.2">
<path opacity="0.2" d="M678.589 281.699L742.858 308.962V307.734L678.589 280.063V281.699Z" fill="#231F20"/>
</g>
</g>
</g>
<path opacity="0.2" d="M747.798 427.347L749.88 426.975V278.353L747.798 276.01V427.347Z" fill="#231F20"/>
<path opacity="0.2" d="M789.863 419.797L792.839 419.239V296.8L789.863 294.718V419.797Z" fill="#231F20"/>
<path opacity="0.2" d="M798.192 418.271L800.833 417.787V302.304L798.192 300.444V418.271Z" fill="#231F20"/>
<path opacity="0.2" d="M809.836 416.151L812.068 415.742V325.996L809.836 324.731V416.151Z" fill="#231F20"/>
<path opacity="0.2" d="M820.547 414.254L822.407 413.882V331.723L820.547 330.645V414.254Z" fill="#231F20"/>
<path opacity="0.2" d="M829.401 412.582L831 412.284V336.448L829.401 335.555V412.582Z" fill="#231F20"/>
<path d="M772.901 315.546L785.844 321.646V290.775L772.901 281.924V315.546Z" fill="#403A3A"/>
<path d="M752.67 306.134L768.998 313.944V279.913L752.67 268.792V306.134Z" fill="#403A3A"/>
<path d="M772.901 367.131L785.844 369.474V338.157L772.901 333.285V367.131Z" fill="#403A3A"/>
<path d="M752.67 363.896L768.998 366.425V332.171L752.67 325.588V363.896Z" fill="#403A3A"/>
<path d="M837.583 364.042L840.818 364.861V351.397L837.583 350.169V364.042Z" fill="#403A3A"/>
<path d="M833.155 362.853L836.689 363.783V349.836L833.155 348.497V362.853Z" fill="#403A3A"/>
<path d="M837.583 381.264L840.818 381.711V368.247L837.583 367.429V381.264Z" fill="#403A3A"/>
<path d="M833.155 380.706L836.689 381.152V367.205L833.155 366.349V380.706Z" fill="#403A3A"/>
<path d="M770.004 386.508L772.347 386.434C774.281 386.359 775.806 384.871 775.806 383.123V378.065C775.806 376.317 774.244 374.904 772.347 374.904H770.004V376.652L772.347 376.615C773.24 376.615 773.947 377.247 773.947 378.065V383.161C773.947 383.979 773.24 384.648 772.347 384.686L770.004 384.76V386.508Z" fill="#898779"/>
<path d="M780.084 386.806L782.241 386.731C784.027 386.657 785.477 385.281 785.477 383.682V378.995C785.477 377.359 784.027 376.057 782.241 376.094H780.084V377.694L782.241 377.656C783.06 377.656 783.729 378.251 783.729 378.995V383.719C783.729 384.463 783.06 385.095 782.241 385.132L780.084 385.207V386.806Z" fill="#898779"/>
<path d="M801.32 387.401L802.993 387.327C804.37 387.253 805.485 386.137 805.485 384.798V380.93C805.485 379.591 804.37 378.512 802.993 378.55L801.32 378.587V379.926L802.993 379.888C803.626 379.888 804.146 380.372 804.146 380.967V384.872C804.146 385.505 803.626 386.025 802.993 386.025L801.32 386.1V387.401Z" fill="#898779"/>
<path d="M805.97 387.514L807.495 387.44C808.759 387.365 809.801 386.287 809.801 385.022V381.303C809.801 380.038 808.759 378.997 807.495 379.034L805.97 379.071V380.336L807.495 380.298C808.09 380.298 808.573 380.745 808.573 381.34V385.059C808.573 385.654 808.09 386.138 807.495 386.175L805.97 386.249V387.514Z" fill="#898779"/>
<path d="M812.703 387.738L814.153 387.663C815.343 387.626 816.31 386.585 816.31 385.395V381.936C816.31 380.746 815.343 379.779 814.153 379.816L812.703 379.853V381.043L814.153 381.006C814.711 381.006 815.157 381.415 815.157 381.973V385.469C815.157 386.027 814.711 386.473 814.153 386.51L812.703 386.585V387.738Z" fill="#898779"/>
<path d="M817.016 387.885L818.355 387.81C819.471 387.773 820.364 386.806 820.364 385.653V382.343C820.364 381.19 819.471 380.297 818.355 380.335L817.016 380.372V381.488L818.355 381.45C818.876 381.45 819.285 381.86 819.285 382.38V385.69C819.285 386.211 818.876 386.657 818.355 386.695L817.016 386.769V387.885Z" fill="#898779"/>
<path d="M793.286 387.141L795.071 387.067C796.559 386.993 797.749 385.802 797.749 384.352V380.186C797.749 378.736 796.559 377.583 795.071 377.62L793.286 377.657V379.071L795.071 379.033C795.74 379.033 796.298 379.554 796.298 380.224V384.389C796.298 385.059 795.74 385.616 795.071 385.654L793.286 385.728V387.141Z" fill="#898779"/>
<path d="M824.268 388.033L825.532 387.959C826.574 387.922 827.429 387.029 827.429 385.987V382.975C827.429 381.933 826.574 381.115 825.532 381.115L824.268 381.152V382.194L825.532 382.157C826.016 382.157 826.425 382.529 826.425 383.012V386.025C826.425 386.508 826.016 386.917 825.532 386.917L824.268 386.955V388.033Z" fill="#898779"/>
<path d="M832.525 389.037L833.603 389C834.496 388.962 835.24 388.107 835.24 387.103V384.202C835.24 383.198 834.496 382.417 833.603 382.417L832.525 382.454V383.458L833.603 383.421C834.012 383.421 834.347 383.755 834.347 384.239V387.14C834.347 387.586 834.012 387.995 833.603 387.995L832.525 388.033V389.037Z" fill="#898779"/>
<path d="M837.919 389.223L838.923 389.185C839.778 389.148 840.448 388.33 840.448 387.363V384.573C840.448 383.606 839.778 382.863 838.923 382.9L837.919 382.937V383.867L838.923 383.83C839.295 383.83 839.63 384.164 839.63 384.611V387.4C839.63 387.846 839.332 388.218 838.923 388.218L837.919 388.256V389.223Z" fill="#898779"/>
<path d="M459.89 196.936L468.109 196.453C476.106 196.006 482.466 189.832 482.466 182.58V145.461C482.466 140.7 478.003 137.093 472.759 137.688L453.121 139.845C448.434 140.366 444.827 144.048 444.827 148.325V184.105C444.79 191.617 451.596 197.42 459.89 196.936Z" fill="#687B9B"/>
<path d="M458.363 195.598L466.582 195.114C474.579 194.668 480.939 188.494 480.939 181.241V144.16C480.939 139.399 476.476 135.792 471.232 136.387L451.594 138.544C446.907 139.064 443.3 142.747 443.3 147.024V182.803C443.263 190.279 450.069 196.081 458.363 195.598Z" fill="#D0D2D3"/>
<path d="M448.21 153.272C448.21 159.781 454.012 164.876 461.19 164.616C468.369 164.356 474.208 158.814 474.208 152.305C474.208 145.796 468.369 140.701 461.19 140.961C454.049 141.259 448.21 146.763 448.21 153.272Z" fill="#687B9B"/>
<path d="M449.473 152.305C449.473 157.698 454.271 161.901 460.222 161.677C466.173 161.454 470.971 156.88 470.971 151.487C470.971 146.094 466.136 141.891 460.222 142.114C454.271 142.374 449.473 146.912 449.473 152.305Z" fill="#E6E7E8"/>
<path d="M448.21 180.014C448.21 186.523 454.012 191.618 461.19 191.395C468.369 191.135 474.208 185.63 474.208 179.121C474.208 172.613 468.369 167.48 461.19 167.74C454.049 168.001 448.21 173.505 448.21 180.014Z" fill="#687B9B"/>
<path d="M449.473 179.047C449.473 184.44 454.271 188.642 460.222 188.456C466.173 188.27 470.971 183.696 470.971 178.303C470.971 172.91 466.136 168.707 460.222 168.893C454.271 169.116 449.473 173.654 449.473 179.047Z" fill="#E6E7E8"/>
<path d="M853.576 344.776L843.125 344.888V343.697L853.092 343.511C853.092 343.511 855.324 344.33 853.576 344.776Z" fill="#B2C5E4"/>
<path d="M334.028 225.016L344.442 226.095V222.301L338.305 221.706C338.268 221.706 331.127 221.817 334.028 225.016Z" fill="#C1D6F4"/>
<path d="M331.798 222.152C331.798 217.205 350.357 216.164 350.357 216.164C350.357 216.164 539.818 203.481 568.94 202.551C591.85 201.807 591.516 201.584 601.855 201.919C611.154 202.217 626.291 204.671 635.143 209.915C689.221 241.864 854.023 343.587 854.023 343.587C854.023 343.587 854.432 343.81 854.432 344.182C854.432 344.702 853.911 344.888 853.056 344.814C851.94 344.702 676.241 237.587 633.32 213.969C625.919 209.878 609.74 206.791 601 206.271C591.665 205.713 589.916 206.159 569.051 206.754C525.87 208.019 350.357 219.883 350.357 219.883C350.357 219.883 332.84 220.962 333.993 225.09C334.03 225.016 331.798 224.346 331.798 222.152Z" fill="#A5B2C4"/>
<path d="M730.317 457.994L730.019 468.668L645.666 469.04V443.6L672.631 440.848L730.317 457.994Z" fill="#003866"/>
<path opacity="0.3" d="M730.317 457.994L730.019 468.668L645.666 469.04V443.6L672.631 440.848L730.317 457.994Z" fill="#231F20"/>
<path d="M554.769 325.103C554.769 327.074 556.517 328.599 558.712 328.562C560.869 328.524 562.654 326.888 562.654 324.954C562.654 322.983 560.906 321.458 558.712 321.495C556.517 321.495 554.769 323.132 554.769 325.103Z" fill="#4F4848"/>
<path d="M556.588 325.066C556.588 326.108 557.518 326.926 558.671 326.889C559.824 326.851 560.754 325.996 560.754 324.955C560.754 323.913 559.824 323.095 558.671 323.132C557.518 323.169 556.588 324.025 556.588 325.066Z" fill="#2D2D2D"/>
<path d="M367.351 331.017C367.351 332.951 369.025 334.439 371.145 334.401C373.228 334.364 374.939 332.765 374.939 330.868C374.939 328.971 373.228 327.409 371.145 327.484C369.025 327.521 367.351 329.083 367.351 331.017Z" fill="#4F4848"/>
<path d="M369.139 330.98C369.139 331.985 370.032 332.803 371.148 332.766C372.263 332.729 373.156 331.91 373.156 330.906C373.156 329.902 372.263 329.084 371.148 329.121C370.032 329.121 369.139 329.976 369.139 330.98Z" fill="#2D2D2D"/>
<path d="M605.686 327.855C605.686 329.826 607.471 331.388 609.666 331.351C611.86 331.314 613.646 329.677 613.646 327.706C613.646 325.735 611.86 324.173 609.666 324.21C607.471 324.285 605.686 325.884 605.686 327.855Z" fill="#4F4848"/>
<path d="M607.543 327.819C607.543 328.861 608.472 329.679 609.663 329.679C610.815 329.642 611.783 328.786 611.783 327.745C611.783 326.703 610.853 325.885 609.663 325.885C608.472 325.922 607.543 326.778 607.543 327.819Z" fill="#2D2D2D"/>
<path d="M645.666 443.599V454.534L277.903 449.997V441.814L645.666 443.599Z" fill="#003866"/>
<path d="M730.316 457.993L864.247 414.812V419.052L730.018 468.667L730.316 457.993Z" fill="#003866"/>
<path opacity="0.15" d="M730.316 457.993L864.247 414.812V419.052L730.018 468.667L730.316 457.993Z" fill="white"/>
<path d="M672.633 440.847L842.827 410.2L864.25 414.812L730.319 457.993L672.633 440.847Z" fill="#003866"/>
<path d="M298.62 441.107H300.852V352.328C300.852 349.91 302.005 347.641 304.05 346.117C306.096 344.554 308.7 343.959 311.229 344.443L328.077 347.567C331.833 348.274 334.549 351.361 334.549 354.894V438.987H336.78V354.894C336.78 350.394 333.321 346.451 328.523 345.596L311.675 342.472C308.476 341.877 305.166 342.658 302.6 344.592C300.034 346.526 298.583 349.39 298.583 352.402V441.107H298.62Z" fill="#727067"/>
<path d="M304.72 439.173L306.84 438.578L292.483 394.951L290.363 395.546L304.72 439.173Z" fill="#8C9199"/>
<path d="M267.229 507.05L269.312 343.848C269.349 340.24 272.548 337.265 276.416 337.19L282.143 337.079C286.644 337.004 290.326 340.315 290.326 344.517V441.144H292.557V344.48C292.557 339.162 287.908 334.922 282.18 335.033L276.453 335.145C271.357 335.256 267.192 339.162 267.155 343.848L265.072 506.976L267.229 507.05Z" fill="#727067"/>
<path d="M610.813 328.599L618.14 323.541C619.033 322.946 619.405 321.904 619.145 320.975C618.884 320.008 617.992 319.338 616.913 319.189C609.66 318.371 596.271 316.995 587.791 316.66C578.009 316.288 564.36 316.809 557.107 317.144C555.88 317.218 554.801 317.888 554.318 318.892C553.834 319.933 554.02 321.086 554.875 321.904L557.851 324.843L559.599 323.392L556.623 320.454C556.326 320.156 556.438 319.822 556.475 319.673C556.549 319.561 556.735 319.264 557.181 319.227C564.397 318.892 577.935 318.371 587.642 318.743C596.011 319.041 609.363 320.454 616.578 321.272C616.764 321.309 616.839 321.421 616.876 321.495C616.913 321.607 616.913 321.718 616.727 321.83L609.437 326.888L610.813 328.599Z" fill="#898779"/>
<path d="M344.069 330.682V328.599C339.606 328.376 337.188 327.781 336.779 327.037C336.779 327 336.816 326.851 337.077 326.628C339.159 324.768 347.751 323.95 362.702 324.285C363.483 324.285 364.079 324.322 364.45 324.322C366.533 324.322 369.174 328.376 370.104 330.347L372.149 329.492C371.777 328.748 368.579 322.277 364.488 322.277C364.116 322.277 363.558 322.277 362.777 322.239C351.842 322.016 338.899 322.165 335.514 325.215C334.882 325.773 334.547 326.479 334.547 327.223C334.547 329.938 339.792 330.459 344.069 330.682Z" fill="#898779"/>
<path d="M460.523 351.993C479.852 351.993 495.521 335.99 495.521 316.25C495.521 296.51 479.852 280.508 460.523 280.508C441.193 280.508 425.524 296.51 425.524 316.25C425.524 335.99 441.193 351.993 460.523 351.993Z" fill="#F42A41"/>
<path d="M460.522 352.923C440.735 352.923 424.631 336.483 424.631 316.251C424.631 296.018 440.735 279.578 460.522 279.578C480.308 279.578 496.413 296.018 496.413 316.251C496.45 336.483 480.346 352.923 460.522 352.923ZM460.522 282.107C442.111 282.107 427.123 297.431 427.123 316.251C427.123 335.07 442.111 350.394 460.522 350.394C478.932 350.394 493.921 335.07 493.921 316.251C493.958 297.431 478.969 282.107 460.522 282.107Z" fill="#E6E7E8"/>
<path d="M478.374 337.004C479.341 336.111 481.424 334.028 482.503 332.615H477.779L477.816 337.487C478.114 337.264 478.374 337.041 478.374 337.004Z" fill="#E6E7E8"/>
<path d="M446.612 340.573C447.132 340.871 447.69 340.871 448.211 340.573C448.732 340.276 449.029 339.718 449.029 339.123V302.674C449.029 301.483 448.099 300.516 446.984 300.516H439.917L441.256 298.991C443.45 296.462 446.091 294.417 449.066 292.929V290.177C439.173 294.64 432.59 304.942 432.59 315.989C432.59 321.121 434.003 326.514 436.309 330.494L436.347 324.84C434.933 320.972 434.933 317.216 434.933 315.989C434.933 311.563 436.049 307.211 438.206 303.343L438.467 302.86L445.087 302.785C445.868 302.674 446.649 303.269 446.835 304.087V304.236V306.244H442.892C441.516 306.244 440.401 307.397 440.401 308.848V334.362C440.401 334.92 440.512 335.515 440.772 336.036C442.521 337.821 444.492 339.346 446.612 340.573ZM442.595 310.484C442.595 309.443 443.45 308.624 444.455 308.624H446.798V335.626C446.798 336.11 446.649 336.482 446.389 336.779C446.165 337.04 445.868 337.151 445.608 337.151C445.57 337.151 445.533 337.151 445.496 337.151H445.459C444.938 337.151 444.566 337.003 444.045 336.631C443.822 336.482 443.599 336.259 443.413 336.036C443.078 335.626 442.818 335.106 442.706 334.585C442.669 334.473 442.669 334.362 442.669 334.25V334.102C442.669 334.027 442.632 333.916 442.632 333.804V310.484H442.595Z" fill="#E6E7E8"/>
<path d="M480.05 329.49L482.84 329.452C483.732 329.452 484.588 328.932 484.96 328.076C485.592 326.775 486.075 325.398 486.484 323.985C487.042 321.939 487.414 319.671 487.6 317.253V316.881C487.6 316.547 487.637 316.249 487.637 315.951C487.637 300.405 475.289 287.759 460.078 287.759C457.772 287.759 455.466 288.057 453.234 288.652V291.255C457.623 289.991 462.272 289.954 466.698 291.218L467.405 291.404V322.423H463.797V297.839C463.797 296.276 462.57 294.975 461.045 294.975H456.767C454.796 294.975 453.197 296.611 453.197 298.657V303.678C453.197 305.723 454.796 307.36 456.767 307.36H457.065C457.92 307.36 458.59 306.653 458.59 305.761V303.641C458.515 303.752 458.441 303.827 458.367 303.901C457.92 304.384 457.288 304.422 457.139 304.422C455.391 304.198 455.391 302.748 455.391 302.153V300.219C455.391 298.62 456.693 297.355 458.255 297.355H458.776C460.301 297.355 461.528 298.582 461.528 300.107V338.49C461.528 339.309 461.193 340.09 460.598 340.647C460.003 341.205 459.185 341.503 458.33 341.466H458.218C456.619 341.354 455.354 340.015 455.354 338.416V312.567H453.16V340.052C453.16 341.949 454.461 343.549 456.247 343.883C456.544 343.958 456.805 343.995 456.991 343.995C457.697 344.069 458.776 344.144 459.371 344.144C459.408 344.144 459.706 344.144 460.152 344.106C462.16 343.995 463.722 342.284 463.722 340.201V324.729H467.33V343.102C467.814 342.953 468.26 342.842 468.706 342.656V291.776L470.082 292.371C470.678 292.632 471.273 292.929 471.83 293.227L472.314 293.487V341.094C472.798 340.833 473.281 340.573 473.727 340.313C473.727 338.825 473.727 337.04 473.727 336.147V335.924V294.305L475.289 295.533C478.339 297.913 480.868 301.074 482.579 304.57L483.211 305.909H481.687C479.492 305.909 477.707 307.769 477.707 310.038V327.109C477.707 327.742 477.93 328.337 478.376 328.783C478.897 329.266 479.418 329.49 480.05 329.49ZM480.013 310.67C480.013 309.405 481.054 308.364 482.319 308.364H483.993L484.253 308.885C484.997 310.373 485.034 313.869 485.034 317.328C485.034 321.53 484.327 325.696 483.323 327.258C482.951 327.816 482.505 328.114 481.947 328.114H481.687C481.203 328.114 480.794 327.928 480.459 327.593C480.162 327.258 479.976 326.849 480.013 326.403V310.67Z" fill="#E6E7E8"/>
<path d="M672.631 440.846L645.666 443.598L277.903 441.813L343.512 438.577L588.538 440.772L615.949 441.144L672.631 440.846Z" fill="#003866"/>
<path d="M645.666 454.533V615.206C645.666 615.206 606.688 608.474 594.08 646.002L401.049 667.128L317.402 623.984C317.402 623.984 317.663 596.759 282.255 588.762L277.903 450.033L645.666 454.533Z" fill="#003866"/>
<path d="M645.667 544.058V615.245C645.667 615.245 606.689 608.513 594.081 646.041L401.05 667.166L317.403 624.022C317.403 624.022 317.664 596.797 282.256 588.801L280.508 533.421L645.667 544.058Z" fill="#F42A41"/>
<path opacity="0.1" d="M428.609 571.245C433.705 568.493 439.581 567.489 445.235 568.158C439.358 576.638 417.749 612.976 400.715 667.054L317.403 624.022L428.609 571.245Z" fill="white"/>
<path opacity="0.1" d="M457.657 571.803L594.081 646.04L427.196 664.302L400.715 667.054C413.212 622.943 439.954 576.155 445.83 567.675C449.996 568.121 454.087 569.497 457.657 571.803Z" fill="#231F20"/>
<path d="M578.497 532.043C578.497 544.391 589.84 554.47 603.862 554.545C617.921 554.619 629.376 544.614 629.376 532.192C629.376 519.769 617.958 509.69 603.862 509.69C589.84 509.69 578.497 519.695 578.497 532.043Z" fill="#403A3A"/>
<path d="M578.497 532.08C578.497 544.466 589.134 554.545 602.263 554.582C615.429 554.656 626.141 544.614 626.141 532.192C626.141 519.769 615.429 509.69 602.263 509.69C589.134 509.69 578.497 519.695 578.497 532.08Z" fill="#4F4848"/>
<path d="M288.319 519.546C288.319 531.522 297.505 541.267 308.849 541.304C320.23 541.341 329.491 531.634 329.491 519.583C329.491 507.57 320.23 497.825 308.849 497.825C297.505 497.825 288.319 507.57 288.319 519.546Z" fill="#403A3A"/>
<path d="M288.319 519.546C288.319 531.522 296.91 541.304 307.547 541.341C318.222 541.378 326.85 531.634 326.85 519.62C326.85 507.57 318.185 497.825 307.547 497.825C296.91 497.825 288.319 507.57 288.319 519.546Z" fill="#4F4848"/>
<path d="M579.39 512.442L597.54 512.59C609.739 511.251 620.86 519.359 621.492 530.369C621.492 530.555 621.492 530.703 621.529 530.889C621.864 540.336 616.173 548.928 605.796 550.453L591.328 551.717L579.39 512.442Z" fill="#7F5D4F"/>
<path d="M533.607 539.257C533.607 556.998 549.451 571.466 569.089 571.615C588.801 571.726 604.831 557.37 604.831 539.48C604.831 521.628 588.801 507.122 569.089 507.122C549.451 507.122 533.607 521.516 533.607 539.257Z" fill="#403A3A"/>
<path d="M533.607 539.258C533.607 556.999 548.186 571.467 566.225 571.578C584.338 571.69 599.103 557.333 599.103 539.481C599.103 521.628 584.375 507.16 566.225 507.16C548.186 507.123 533.607 521.517 533.607 539.258Z" fill="#4F4848"/>
<path d="M272.399 537.585L308.811 537.362C316.51 536.433 322.386 528.622 322.386 519.287C322.386 508.501 314.65 500.095 305.798 501.174L269.87 501.099L272.399 537.585Z" fill="#7F5D4F"/>
<path d="M232.343 521.368C232.343 536.841 244.133 549.449 258.75 549.486C273.404 549.561 285.306 536.989 285.306 521.443C285.306 505.896 273.404 493.288 258.75 493.325C244.171 493.325 232.343 505.896 232.343 521.368Z" fill="#403A3A"/>
<path d="M232.343 521.368C232.343 536.841 242.683 549.412 255.477 549.486C268.309 549.561 278.76 536.989 278.76 521.443C278.76 505.896 268.346 493.288 255.477 493.325C242.72 493.325 232.343 505.896 232.343 521.368Z" fill="#4F4848"/>
<path opacity="0.25" d="M459.631 485.106L466.512 482.912V453.269L459.631 453.195V485.106Z" fill="#231F20"/>
<path d="M583.59 414.142V440.698L576.412 441.59V414.216L583.59 414.142Z" fill="#1C558A"/>
<path d="M576.412 414.216L548.592 414.513V441.478L576.412 441.59V414.216Z" fill="#1C558A"/>
<path opacity="0.2" d="M583.59 414.142V440.698L576.412 441.59V414.216L583.59 414.142Z" fill="#231F20"/>
<path opacity="0.1" d="M576.412 414.216L548.592 414.513V441.478L576.412 441.59V414.216Z" fill="white"/>
<path d="M551.827 427.607C551.827 432.888 556.588 437.128 562.464 437.091C568.341 437.054 573.139 432.702 573.139 427.421C573.139 422.139 568.378 417.862 562.464 417.937C556.588 418.011 551.827 422.325 551.827 427.607Z" fill="#F3B800"/>
<path d="M335.921 415.109V439.843L325.991 440.921V415.221L335.921 415.109Z" fill="#0A4982"/>
<path d="M325.993 415.219L302.711 415.442V441.068L325.993 440.919V415.219Z" fill="#0A4982"/>
<path opacity="0.1" d="M325.993 415.219L302.711 415.442V441.068L325.993 440.919V415.219Z" fill="white"/>
<path d="M305.428 428.238C305.428 433.371 309.407 437.536 314.354 437.499C319.263 437.462 323.28 433.259 323.28 428.089C323.28 422.92 319.3 418.791 314.354 418.828C309.407 418.866 305.428 423.106 305.428 428.238Z" fill="#F3B800"/>
<path d="M592.296 442.706L621.306 398L619.261 396.959L589.544 442.706H592.296Z" fill="#B2C5E4"/>
<path d="M630.086 525.238L648.497 525.275C656.716 525.275 663.411 519.324 663.411 511.997V337.563C663.411 330.236 656.716 324.396 648.497 324.545L633.88 324.843C625.698 324.992 619.077 331.054 619.077 338.344V442.707H621.458V338.344C621.458 332.207 627.037 327.149 633.88 327L648.497 326.74C655.377 326.591 660.994 331.5 660.994 337.637V512.034C660.994 518.171 655.377 523.192 648.497 523.155L630.086 523.118V525.238Z" fill="#898779"/>
<path d="M672.966 527.433C675.904 527.433 678.693 526.466 680.813 524.681C683.082 522.784 684.384 520.18 684.421 517.391L687.471 333.398C687.508 332.022 688.252 330.757 689.554 329.939C690.855 329.158 692.455 328.972 693.905 329.455L701.493 332.059C703.985 332.914 705.621 335.109 705.547 337.489L702.348 444.716L704.766 444.753L707.964 337.489C708.076 334.216 705.844 331.241 702.422 330.05L694.835 327.447C692.678 326.703 690.186 326.963 688.252 328.154C686.318 329.344 685.128 331.278 685.091 333.361L682.041 517.316C682.004 519.511 680.999 521.556 679.177 523.081C677.354 524.606 675.011 525.35 672.519 525.276L662.254 524.829L662.143 526.949L672.408 527.396C672.594 527.433 672.78 527.433 672.966 527.433Z" fill="#727065"/>
<path opacity="0.1" d="M645.666 443.599V454.534L277.903 451.893V441.814L645.666 443.599Z" fill="white"/>
<path d="M459.629 485.108L438.392 485.182V442.782L459.629 442.634V485.108Z" fill="#1C558A"/>
<path d="M440.55 452.863C440.55 456.843 443.934 460.041 448.1 460.041C452.265 460.004 455.65 456.768 455.65 452.789C455.65 448.809 452.265 445.611 448.1 445.611C443.934 445.648 440.55 448.884 440.55 452.863Z" fill="#003866"/>
<path d="M440.55 474.137C440.55 478.116 443.934 481.315 448.1 481.315C452.265 481.315 455.65 478.079 455.65 474.062C455.65 470.045 452.265 466.847 448.1 466.884C443.934 466.921 440.55 470.157 440.55 474.137Z" fill="#003866"/>
<path d="M443.113 452.825C443.113 456.098 445.605 458.702 448.692 458.702C451.779 458.702 454.271 456.024 454.271 452.751C454.271 449.478 451.779 446.837 448.692 446.875C445.642 446.912 443.113 449.59 443.113 452.825Z" fill="#F42A41"/>
<path d="M443.113 474.098C443.113 477.371 445.605 480.012 448.692 479.975C451.779 479.975 454.271 477.297 454.271 474.061C454.271 470.825 451.779 468.148 448.692 468.185C445.642 468.185 443.113 470.863 443.113 474.098Z" fill="#F42A41"/>
<path d="M901.332 581.212C901.109 586.308 897.984 587.944 894.228 587.795C890.471 587.609 887.533 585.675 887.756 580.58C887.98 575.485 895.083 569.273 895.083 569.273C895.083 569.273 901.555 576.08 901.332 581.212Z" fill="#006747"/>
<path d="M893.449 626.885C893.97 631.98 891.106 634.063 887.387 634.435C883.668 634.807 880.469 633.319 879.948 628.224C879.428 623.129 885.564 615.988 885.564 615.988C885.564 615.988 892.929 621.79 893.449 626.885Z" fill="#006747"/>
</g>
<defs>
<clipPath id="clip0_8_549">
<rect width="927" height="642" fill="white"/>
</clipPath>
</defs>
</svg>
